<svg xmlns="http://www.w3.org/2000/svg" width="13" height="13"><path fill="none" stroke="#fc567e" stroke-linecap="round" stroke-linejoin="round" stroke-miterlimit="50" stroke-width=".67" d="M11.886 9.387a2.48 2.48 0 00-.324-.429 4.78 4.78 0 00-.38-.372 9.7 9.7 0 00-.469-.39l-.289-.213a8.158 8.158 0 00-.471-.318 4.907 4.907 0 00-.53-.29 1.165 1.165 0 00-.482-.132c-.228 0-.427.107-.593.317a6.62 6.62 0 00-.455.66l-.178.281c-.056.09-.113.17-.167.237a.767.767 0 01-.12.129l-.026.016a4.816 4.816 0 01-.947-.545 7.871 7.871 0 01-.969-.828 7.902 7.902 0 01-.827-.968 4.639 4.639 0 01-.542-.95.604.604 0 00.013-.02.872.872 0 01.133-.122c.07-.055.15-.112.238-.168l.275-.172c.245-.153.467-.307.661-.46.21-.166.317-.363.317-.587a1.18 1.18 0 00-.132-.482 5.017 5.017 0 00-.29-.532 7.173 7.173 0 00-.319-.473 8.605 8.605 0 00-.603-.756 6.21 6.21 0 00-.366-.376 2.336 2.336 0 00-.432-.33c-.27-.15-.472-.138-.727-.043a2.335 2.335 0 00-.366.175 3.504 3.504 0 00-.662.494 3.566 3.566 0 00-.52.59c-.091.13-.17.275-.235.43-.067.157-.102.32-.102.486 0 .243.018.493.053.742a7.233 7.233 0 00.411 1.54c.102.264.222.531.356.794a10.988 10.988 0 001.451 2.14c.19.222.396.444.608.66a12.494 12.494 0 001.355 1.162c.233.173.473.337.715.489a9.338 9.338 0 001.524.77c.256.1.518.185.776.253.255.068.512.12.762.153.251.034.501.051.742.051.163 0 .327-.033.485-.098.154-.063.299-.142.434-.235a3.63 3.63 0 00.846-.83 3.82 3.82 0 00.236-.354c.07-.121.129-.245.175-.366.047-.127.071-.247.071-.357a.764.764 0 00-.114-.373z"/></svg>