<?xml version="1.0" standalone="no"?>
<!DOCTYPE svg PUBLIC "-//W3C//DTD SVG 1.1//EN" "http://www.w3.org/Graphics/SVG/1.1/DTD/svg11.dtd" >
<svg xmlns="http://www.w3.org/2000/svg">
<metadata>
<json>
<![CDATA[
{
	"fontFamily": "flowers-icons",
	"fontURL": "https://linearicons.com",
	"designerURL": "https://perxis.com",
	"license": "https://linearicons.com/free/license",
	"licenseURL": "https://linearicons.com/free/license",
	"description": "Designed by Perxis (https://perxis.com).\nFont generated by IcoMoon.",
	"copyright": "Copyright © 2015 Perxis.com. All Rights Reserved.",
	"majorVersion": 1,
	"minorVersion": 0,
	"version": "Version 1.0",
	"fontId": "flowers-icons",
	"psName": "flowers-icons",
	"subFamily": "Regular",
	"fullName": "flowers-icons"
}
]]>
</json>
</metadata>
<defs>
<font id="flowers-icons" horiz-adv-x="1024">
<font-face units-per-em="1024" ascent="896" descent="-128" />
<missing-glyph horiz-adv-x="1024" />
<glyph unicode="&#x20;" horiz-adv-x="0" d="" />
<glyph unicode="&#x63;" glyph-name="rubl2-bold" data-tags="rubl2-bold" horiz-adv-x="771" d="M71.68 398.336v120.832h82.944v326.656h232.448c88.064 0 145.408-4.096 173.056-11.264 81.92-21.504 144.384-95.232 144.384-209.92 0-131.072-83.968-199.68-159.744-216.064-34.816-7.168-84.992-10.24-150.528-10.24h-94.208v-61.44h373.76v-120.832h-373.76v-88.064h-145.408v88.064h-82.944v120.832h82.944v61.44h-82.944zM369.664 723.968h-69.632v-203.776h78.848c57.344 0 95.232 4.096 114.688 11.264 36.864 13.312 61.44 49.152 61.44 91.136 0 52.224-34.816 88.064-80.896 96.256-17.408 3.072-52.224 5.12-104.448 5.12z" />
<glyph unicode="&#x6f;" glyph-name="rubl2" data-tags="rubl2" horiz-adv-x="649" d="M144.384 128v140.288h-67.584v72.704h67.584v71.68h-67.584v72.704h67.584v360.448h232.448c103.424 0 200.704-50.176 200.704-186.368 0-198.656-160.768-245.76-326.656-245.76h-11.264v-72.704h317.44v-72.704h-317.44v-140.288h-95.232zM239.616 774.144v-288.768h32.768c124.928 0 203.776 44.032 203.776 165.888 0 90.112-67.584 122.88-124.928 122.88h-111.616z" />
<glyph unicode="&#x71;" glyph-name="rubl" data-tags="rubl" horiz-adv-x="654" d="M61.44 394.24v81.92h67.584v368.64h193.536c87.040 0 143.36-13.312 189.44-45.056 54.272-36.864 86.016-89.088 86.016-171.008 0-64.512-22.528-119.808-63.488-159.744-49.152-49.152-112.64-73.728-215.040-73.728h-95.232v-68.608h344.064v-80.896h-344.064v-117.76h-95.232v117.76h-67.584v80.896h67.584v67.584h-67.584zM498.688 625.664c0 50.176-16.384 84.992-52.224 108.544-31.744 20.48-67.584 28.672-128 28.672h-94.208v-286.72h79.872c77.824 0 121.856 14.336 153.6 44.032 29.696 29.696 40.96 63.488 40.96 105.472z" />
<glyph unicode="&#xe005;" glyph-name="user" data-tags="user" d="M511.728 832c108.672 0 223.92-91.534 223.92-159.854v-159.92c0-61.552-25.6-179.312-94.256-233.376-17.504-13.776-26.592-35.681-23.968-57.809 2.624-22.16 16.592-41.313 36.848-50.625l278.496-132.064c2.176-0.992 26.688-5.104 26.688-39.345l0.032-62.464-895.488-0.048v64.944c0 25.44 19.088 33.425 26.72 36.944l281.024 132.624c20.16 9.248 34.065 28.32 36.769 50.32 2.72 22-6.16 43.84-23.456 57.712-66.481 53.376-97.456 170.704-97.456 233.185v159.92c0.016 66.848 116.416 159.855 224.128 159.854zM511.728 896.002c-141.312 0-288.127-117.938-288.127-223.857v-159.92c0-69.872 31.888-211.248 121.392-283.088l-281.040-132.64s-63.952-28.496-63.952-63.968v-96.032c0-35.344 28.64-63.968 63.951-63.968h895.552c35.344 0 63.968 28.624 63.968 63.968v96.032c0 37.6-63.968 63.968-63.968 63.968l-278.496 132.064c88.656 69.776 118.656 206.849 118.656 283.665v159.92c0 105.92-146.64 223.855-287.936 223.855v0z" />
<glyph unicode="&#xe01e;" glyph-name="envelope-open" data-tags="envelope-open" d="M1023.31 422.704c-1.36 11.312-5.614 21.713-12.095 30.465h0.16l-0.88 0.88c-3.28 4.32-7.12 8.128-11.408 11.504l-417.28 403.408c-36.224 36.224-99.504 36.288-135.776 0l-417.216-400.256c-9.024-8.4-28.881-31.089-28.881-53.345v-479.52c0-35.184 28.816-64 64-64h896c35.184 0 64 28.816 64 64v478.256c0.224 2.88-0.064 5.76-0.624 8.607zM269.794 169.665l-205.856-189.567v371.184zM335.569 143.281c2.288 1.52 4.465 3.248 6.369 5.408 0.368 0.416 0.624 0.912 0.96 1.344l141.168 130c7.248 5.84 15.84 8.912 24.88 8.912 9.184 0 18.367-3.216 24.527-8l383.6-345.104h-806.736zM757.458 165.442l202.48 179.696v-361.84zM103.778 453.171l387.501 370.544c6.064 6.032 14.097 9.376 22.625 9.376 8.56 0 16.592-3.344 22.656-9.376l361.376-344.352h-0.976l54.896-55.792-242.304-215.040-135.248 121.664c-37.68 29.536-91.775 30.816-131.68-1.376l-125.504-115.584-241.792 213.344 26.992 26.592h1.456z" />
<glyph unicode="&#xe02a;" glyph-name="wallet" data-tags="wallet" d="M1023.65 605.52c0.464 23.664-5.904 78.848-77.84 98.063l-722.416 144.624c-52.944 0-96-43.056-96-96v-128.704l-32 0.080c-52.752-0.224-95.632-43.151-95.632-95.968v-511.808c0-52.944 43.056-96 96-96h832.464c52.944 0 96 43.056 96 96zM191.393 752.207c0 16.72 12.88 30.463 29.216 31.871l706-142.88c0.256-0.128-5.248-17.936-30.88-17.6h-704.336zM960.24 15.79c0-17.664-14.336-32-32-32h-832.48c-17.664 0-32 14.336-32 32v511.824c0 17.664 14.336 32 32 32h800.064c31.408 0 64.4 10.704 64.4 31.888v-575.712h0.016zM191.824 335.502c-35.344 0-64-28.656-64-64s28.656-64 64-64 64 28.656 64 64-28.656 64-64 64z" />
<glyph unicode="&#xe032;" glyph-name="picture" data-tags="picture" d="M960 816.096h-896c-35.184 0-64-28.816-64-64v-736.192c0-35.184 28.816-64 64-64h896c35.184 0 64 28.816 64 64v736.192c0 35.184-28.816 64-64 64zM960 15.903l-895.999 0.001v188.56l256.848 248.912 264.784-264.496c10.912-13.248 30.336-11.568 44.128-1.12l116.88 105.808 210.8-216.384c0.8-0.8 1.695-1.392 2.56-2.080v-59.2zM960.001 166.208l-188.031 192.416c-11.408 11.248-29.28 12.4-41.937 2.752l-120.56-105.024-264.944 262.080c-5.664 6.848-13.84 11.023-22.688 11.6-8.816 0.32-17.505-2.56-23.969-8.624l-233.872-227.6v458.288h896v-585.888zM736.002 495.872c35.28 0 63.84 28.608 63.84 63.841 0 35.216-28.56 63.824-63.84 63.824s-63.84-28.608-63.84-63.824c0-35.232 28.56-63.841 63.84-63.841z" />
<glyph unicode="&#xe034;" glyph-name="layers" data-tags="layers" d="M21.84 594.192l475.090-258.72c4.784-2.592 10.032-3.904 15.313-3.904 5.216 0 10.432 1.28 15.184 3.84l480.096 258.72c10.464 5.632 16.976 16.624 16.815 28.528-0.16 11.936-6.912 22.752-17.504 28.16l-475.12 241.28c-9.056 4.592-19.744 4.624-28.88 0.064l-480.048-241.28c-10.624-5.344-17.44-16.16-17.633-28.064s6.256-22.944 16.688-28.624zM517.153 827.713l406.159-206.271-410.976-221.472-406.176 221.184zM1001.34 415.682l-94.974 48.225-68.56-36.976 80-40.624-410.96-221.456-406.192 221.184 85.311 42.88-68.368 37.248-100.32-50.4c-10.624-5.344-17.44-16.16-17.633-28.065s6.256-22.944 16.688-28.624l475.088-258.72c4.784-2.592 10.032-3.903 15.313-3.903 5.216 0 10.432 1.28 15.184 3.84l480.096 258.72c10.464 5.632 16.976 16.624 16.815 28.528-0.144 11.935-6.896 22.752-17.487 28.144zM1001.35 191.683l-89.966 44.224-68.56-36.976 75.008-36.624-410.976-221.456-406.192 221.184 79.311 35.872-68.368 37.248-94.32-43.408c-10.624-5.344-17.44-16.16-17.633-28.064s6.256-22.944 16.688-28.624l475.088-258.72c4.784-2.592 10.032-3.903 15.313-3.903 5.216 0 10.432 1.28 15.184 3.84l480.096 258.72c10.464 5.632 16.976 16.624 16.815 28.528-0.144 11.952-6.896 22.769-17.487 28.16z" />
<glyph unicode="&#xe048;" glyph-name="call-end" data-tags="call-end" d="M961.696 696.448c0-1.056-0.097-1.935-0.225-2.623-26.16-18-172.433-114.624-199.776-132.16-2.88-0.064-10.191 0.911-20.623 6.399-11.12 5.84-43.536 24.032-88.88 49.904l-35.28 20.128-33.248-23.344c-24.72-17.408-78.464-58.816-160.288-140.624-82.176-82.16-123.456-135.712-140.768-160.336l-23.344-33.248 20.16-35.28c19.536-34.192 42.944-75.504 50-88.944 5.68-10.784 6.128-18.16 6.128-20.16 0-0.32 0-0.593-0.032-0.816-15.36-24.496-114.593-173.937-132.673-200.32-2.56-0.432-8.128-0.031-15.088 4.816-56.256 40.608-114.96 98.24-123.376 120.8 5.632 120.032 111.12 288.464 297.568 474.88 186.464 186.4 354.72 291.872 474.352 297.44 22.624-8.096 80.624-66.815 120.912-122.527 2.832-4.128 4.48-9.232 4.481-13.985zM1023.7 696.449c0 16.944-5.121 34.914-15.969 50.498-1.056 1.504-108.256 152.096-170.336 150.096-174.432-5.552-379.439-175.056-520.703-316.271-141.232-141.216-310.801-346.224-316.385-521.344v-1.44c0-61.312 148.672-169.088 150.144-170.128 40.4-28.288 84.881-17.968 102.945 7.776 11.008 15.664 124.976 187.056 137.808 208.063 5.6 9.152 8.336 20.32 8.336 32.464 0 15.664-4.576 33.008-13.473 49.936-8.688 16.496-37.119 66.464-51.087 90.912 15.12 21.536 53.872 72.128 133.664 151.84 79.184 79.216 130.191 118.319 151.84 133.535 24.432-13.936 74.399-42.336 90.848-50.976 31.008-16.368 61.968-18.225 82.848-4.944 19.68 12.464 189.808 125.968 206 137.68 15.28 11.056 23.52 30.848 23.52 52.303z" />
<glyph unicode="&#xe04a;" glyph-name="bubbles" data-tags="bubbles" d="M424.816 216.656c230.944 0 409.902 131.903 407.15 327.631 0 173.184-183.216 311.632-414.16 311.632-230.976 0-418.159-138.448-418.159-311.632 0-107.872 52.912-222.88 163.408-279.376 0-0.656-0.192-1.152-0.192-1.872 0-46.88-39.024-111.152-54.4-137.664h0.064c-1.216-2.88-1.952-6-1.952-9.344 0-13.12 10.576-23.664 23.696-23.664 1.936 0 5.088 0.4 6.224 0.4 0.32 0 0.433 0 0.4-0.096 81.664 13.344 202.256 105.248 220.128 127.024 18.336-2.72 30.72-3.151 46.080-3.151 6.528 0.016 13.473 0.111 21.713 0.111zM330.687 285.535l-40.977-34.032c-9.504-10.976-50.8-45.439-86.352-67.808 21.648 61.68 20.704 81.216 20.704 81.216l3.008 39.152-34.88 17.808c-88.672 45.344-128.528 139.744-128.528 222.4 0 137.664 158.864 247.632 354.16 247.632 195.28 0 350.16-109.968 350.16-247.632-0.608-152.608-145.872-264.624-341.152-264.624 0 0-29.808-1.152-60.399 3.376zM1024.33 285.807c0 86.736-33.887 152.881-118.446 202.513-2.064-23.072-8.641-47.824-15.793-69.568 54.656-37.776 70.256-76.561 70.256-132.944 0-69.024-32.16-119.089-106.912-157.345l-31.84-15.808s3.312-82 8.224-102.752c-62.448 45.776-83.904 84-83.904 84l-33.664-5.184c-13.312-1.936-49.312-1.968-49.312-1.968-86.944 0-151.376 20.72-206.336 63.744 14.928 0.912-89.185 0.88-91.505-1.152 63.568-77.632 167.473-126.592 297.841-126.592 7.088 0 13.088-0.064 18.72-0.064 13.28 0 24 0.368 39.84 2.688 15.488-18.784 102.225-101.504 172.816-113.008-0.032 0.064 0.063 0.064 0.367 0.064 0.944 0 3.681-0.336 5.345-0.336 11.344 0 20.496 9.12 20.496 20.464 0 2.88-0.656 5.6-1.681 8.063h0.064c-13.28 22.88-34.128 89.744-34.128 130.256 0 0.624-0.192 1.056-0.192 1.632 95.504 48.832 139.744 120.080 139.744 213.296z" />
<glyph unicode="&#xe054;" glyph-name="trash" data-tags="trash" d="M896.8 736.976l-225.277-0.001v87.264c0 40.528-33.008 72.496-73.536 72.496h-171.984c-40.528 0-73.52-31.968-73.52-72.496v-87.264h-225.28c-17.664 0-32-14.336-32-32s14.336-32 32-32h44.016l74.24-739.92c3.104-34.624 32.607-61.776 67.136-61.776h398.8c34.528 0 64 27.152 67.088 61.473l74.304 740.24h44.016c17.68 0 32 14.336 32 32s-14.32 31.984-32 31.984zM416.482 824.238c0 5.232 4.271 9.505 9.52 9.505h171.984c5.248 0 9.536-4.272 9.536-9.505v-87.264h-191.040zM714.77-61.202c-0.16-1.776-2.256-3.536-3.376-3.536h-398.8c-1.12 0-3.232 1.744-3.425 3.84l-73.632 733.856h552.912z" />
<glyph unicode="&#xe05b;" glyph-name="share" data-tags="share" d="M864 192c-52.688 0-99.295-25.585-128.431-64.881l-421.36 214.72c3.664 13.456 5.792 27.536 5.792 42.16 0 18.304-3.216 35.808-8.88 52.176l423.76 205.616c29.088-39.808 76.016-65.792 129.119-65.792 88.368 0 160 71.648 160 160 0 88.368-71.632 160-160 160s-160-71.632-160-160c0-12.432 1.568-24.464 4.24-36.080l-429.84-208.576c-29.28 32.273-71.393 52.656-118.4 52.656-88.368 0-160-71.632-160-160 0-88.352 71.632-160 160-160 50.895 0 96.128 23.824 125.424 60.864l423.104-215.632c-2.864-11.968-4.528-24.384-4.528-37.231 0-88.368 71.632-160 160-160s160 71.632 160 160-71.632 160-160 160zM864.002 831.999c53.008 0 96-42.992 96-96s-42.992-96-96-96-96 42.992-96 96 42.992 96 96 96zM160.002 287.999c-53.024 0-96 42.992-96 96s42.976 96 96 96c53.008 0 96-42.992 96-96s-42.992-96-96-96zM864.002-64.001c-53.008 0-96 42.992-96 96s42.992 96 96 96 96-42.992 96-96-42.992-96-96-96z" />
<glyph unicode="&#xe067;" glyph-name="list" data-tags="list" d="M96 448h-64c-17.664 0-32-14.336-32-32v-64c0-17.664 14.336-32 32-32h64c17.664 0 32 14.336 32 32v64c0 17.664-14.336 32-32 32zM992 416h-672c-17.664 0-32-14.336-32-32s14.336-32 32-32h672c17.664 0 32 14.336 32 32s-14.336 32-32 32zM96 192h-64c-17.664 0-32-14.336-32-32v-64c0-17.664 14.336-32 32-32h64c17.664 0 32 14.336 32 32v64c0 17.664-14.336 32-32 32zM992 160h-672c-17.664 0-32-14.336-32-32s14.336-32 32-32h672c17.664 0 32 14.336 32 32s-14.336 32-32 32zM96 704h-64c-17.664 0-32-14.336-32-32v-64c0-17.664 14.336-32 32-32h64c17.664 0 32 14.336 32 32v64c0 17.664-14.336 32-32 32zM320 608h672c17.664 0 32 14.336 32 32s-14.336 32-32 32h-672c-17.664 0-32-14.336-32-32s14.336-32 32-32z" />
<glyph unicode="&#xe069;" glyph-name="home" data-tags="home" d="M1016.7 382.64l-480.369 503.168c-6.032 6.304-14.368 9.84-23.088 9.84-8.704 0-17.040-3.552-23.088-9.84l-482.848-503.152c-12.24-12.752-11.809-32.992 0.943-45.248 12.752-12.224 32.992-11.872 45.248 0.944l43.008 44.832v-478.832c0-17.68 14.336-32 32-32h223.552c17.632 0 31.935 14.256 32 31.904l1.008 319.664h254.992v-319.568c0-17.68 14.32-32 32-32h223.472c17.68 0 32 14.32 32 32v478.992l42.992-45.040c6.288-6.528 14.688-9.84 23.089-9.84 7.968 0 15.968 2.944 22.16 8.944 12.736 12.224 13.152 32.48 0.929 45.231zM863.535 441.184v-504.831h-159.472v319.552c0 17.68-14.32 32-32 32h-318.88c-17.632 0-31.935-14.256-32-31.904l-1.008-319.664h-159.664v504.848c0 2.64-0.416 5.168-1.008 7.632l353.76 368.624 351.424-368.208c-0.688-2.592-1.152-5.264-1.152-8.048z" />
<glyph unicode="&#xe06a;" glyph-name="grid" data-tags="grid" d="M960-128h-320c-35.344 0-64 28.656-64 64v320c0 35.344 28.656 64 64 64h320c35.344 0 64-28.656 64-64v-320c0-35.344-28.656-64-64-64zM960 256h-320v-320h320v320zM960 448h-320c-35.344 0-64 28.656-64 64v320c0 35.344 28.656 64 64 64h320c35.344 0 64-28.656 64-64v-320c0-35.344-28.656-64-64-64zM960 832h-320v-320h320v320zM384-128h-320c-35.344 0-64 28.656-64 64v320c0 35.344 28.656 64 64 64h320c35.344 0 64-28.656 64-64v-320c0-35.344-28.656-64-64-64zM384 256h-320v-320h320v320zM384 448h-320c-35.344 0-64 28.656-64 64v320c0 35.344 28.656 64 64 64h320c35.344 0 64-28.656 64-64v-320c0-35.344-28.656-64-64-64zM384 832h-320v-320h320v320z" />
<glyph unicode="&#xe081;" glyph-name="clock" data-tags="clock" d="M512 896c-282.768 0-512-229.232-512-512 0-282.784 229.232-512 512-512 282.784 0 512 229.216 512 512 0 282.768-229.216 512-512 512zM512-65.008c-247.024 0-448 201.984-448 449.009s200.976 448 448 448 448-200.976 448-448-200.976-449.009-448-449.009zM544 396.992v307.006c0 17.664-14.336 32-32 32s-32-14.336-32-32v-320c0-9.056 3.792-17.199 9.856-23.007 0.528-0.624 0.96-1.296 1.536-1.888l158.384-158.4c12.496-12.481 32.752-12.481 45.248 0 12.496 12.496 12.496 32.769 0 45.265z" />
<glyph unicode="&#xe087;" glyph-name="eye" data-tags="eye" d="M515.472 574.592c-106.032 0-192-85.968-192-192 0-106.016 85.968-192 192-192s192 85.968 192 192-85.968 192-192 192zM515.472 254.592c-70.576 0-129.473 58.816-129.473 129.393s57.424 128 128 128c70.592 0 128-57.424 128-128s-55.936-129.393-126.527-129.393zM1023.68 391.424c-0.368 1.616-0.207 3.325-0.688 4.909-0.208 0.672-0.624 1.056-0.864 1.647-0.336 0.912-0.256 1.984-0.72 2.864-93.072 213.104-293.664 335.76-507.424 335.76s-418.368-122.432-511.488-335.552c-0.4-0.896-0.336-1.824-0.656-2.849-0.224-0.624-0.688-0.976-0.896-1.567-0.496-1.616-0.304-3.296-0.607-4.928-0.592-2.88-1.136-5.68-1.136-8.592 0-2.944 0.544-5.664 1.136-8.592 0.32-1.6 0.112-3.344 0.608-4.88 0.208-0.72 0.672-1.023 0.896-1.68 0.336-0.88 0.256-1.968 0.656-2.848 93.136-213.056 295.744-333.712 509.504-333.712 213.776 0 416.336 120.4 509.44 333.505 0.464 0.912 0.368 1.872 0.72 2.88 0.224 0.56 0.655 0.976 0.848 1.6 0.496 1.568 0.336 3.28 0.688 4.912 0.56 2.864 1.088 5.664 1.088 8.624 0 2.816-0.528 5.601-1.104 8.497zM512 95.405c-181.296 0-359.743 95.568-447.423 287.681 86.848 191.472 267.68 289.504 449.424 289.504 181.68 0 358.496-98.144 445.376-289.712-86.816-191.408-265.633-287.473-447.377-287.473z" />
<glyph unicode="&#xe08d;" glyph-name="link" data-tags="link" d="M295.664 163.552c6.256-6.256 14.432-9.376 22.624-9.376s16.368 3.12 22.624 9.376l387.664 390.688c12.496 12.496 12.496 32.752 0 45.248s-32.752 12.496-45.248 0l-387.664-390.688c-12.512-12.496-12.512-32.752 0-45.248zM475.872 231.695c10.576-46.624-0.834-92.399-36.866-128.432l-129.248-125.248c-27.2-27.184-63.36-42.159-101.824-42.159s-74.624 14.976-101.808 42.159c-56.144 56.16-56.144 147.536-0.336 203.344l126.256 130.256c27.2 27.184 63.36 42.176 101.824 42.176 13.152 0 25.824-2.352 38.176-5.743l49.952 49.952c-27.872 13.024-57.952 19.792-88.128 19.792-53.232 0-106.465-20.32-147.073-60.929l-125.936-129.936c-81.216-81.216-81.216-212.912 0-294.16 40.608-40.624 93.841-60.912 147.073-60.912s106.465 20.288 147.073 60.912l128.944 124.944c62.128 62.128 75.568 148.72 42.656 224.72zM963.134 835.216c-40.624 40.608-93.841 60.929-147.057 60.929-53.248 0-106.496-20.32-147.088-60.929l-128.928-124.944c-64.4-64.4-77.536-160.465-39.792-238.033l49.664 49.648c-14.704 49.103-3.408 104.336 35.056 142.832l129.248 125.248c27.216 27.184 63.344 42.176 101.84 42.176 38.432 0 74.624-14.992 101.808-42.176 56.128-56.16 56.128-147.536 0.32-203.344l-129.248-129.248c-27.184-27.184-63.376-42.159-101.808-42.159-9.808 0-18.432-0.992-27.84 0.928l-50.976-51.008c25.472-10.592 51.632-13.936 78.815-13.936 53.216 0 106.432 20.304 147.056 60.928l128.944 128.944c81.2 81.216 81.2 212.896-0.015 294.144z" />
<glyph unicode="&#xe08e;" glyph-name="lock" data-tags="lock" d="M800 512h-32v122.128c0 146.848-106.256 261.872-257.184 261.872-151.536 0-254.816-117.472-254.816-261.872v-122.128h-32c-70.592 0-128-57.408-128-128v-384c0-70.592 57.408-128 128-128h576c70.592 0 128 57.408 128 128v384c0 70.592-57.408 128-128 128zM320 634.128c0 109.088 74.56 197.872 190.816 197.872 115.056 0 193.184-86.912 193.184-197.872v-122.128h-384v122.128zM864.001 0c0-35.28-28.72-64-64-64h-576c-35.28 0-64 28.72-64 64v384c0 35.28 28.72 64 64 64h576c35.28 0 64-28.72 64-64v-384zM512.001 320c-35.344 0-64-28.656-64-64 0-23.632 12.96-44.032 32-55.12v-104.88c0-17.664 14.336-32 32-32s32 14.336 32 32v104.88c19.040 11.088 32 31.504 32 55.12 0 35.344-28.656 64-64 64z" />
<glyph unicode="&#xe093;" glyph-name="paper-clip" data-tags="paper-clip" d="M172.72-111.632c-43.408 0-85.085 17.965-118.301 51.213-73.648 73.888-73.648 194.063-0.017 267.903l574.272 609.824c89.6 89.744 226.848 81.68 327.008-18.608 44.88-44.96 70.063-109.776 69.119-177.904-0.944-67.408-27.28-131.92-72.288-177.008l-434.016-462.048c-12.080-12.944-32.336-13.536-45.231-1.393-12.864 12.16-13.488 32.448-1.36 45.345l434.672 462.752c34 34.064 53.504 82.385 54.224 133.249 0.72 50.895-17.664 98.88-50.368 131.664-61.44 61.568-161.473 93.809-235.841 19.265l-574.256-609.824c-49.376-49.504-49.36-129.008-0.641-177.855 22.848-22.864 49.968-34 78.848-32.256 28.576 1.744 57.952 16.4 82.72 41.232l456.928 486.336c16.56 16.592 49.84 57.264 15.968 91.216-19.184 19.216-32.655 18.032-37.087 17.664-12.656-1.12-27.44-9.872-42.784-25.264l-343.92-365.776c-12.144-12.912-32.416-13.536-45.232-1.36-12.88 12.128-13.472 32.448-1.359 45.313l344.544 366.464c27.088 27.216 54.784 41.968 82.977 44.496 22 1.952 54.72-2.736 88.096-36.208 49.536-49.632 43.376-122.432-15.28-181.216l-456.928-486.304c-36.481-36.608-80.528-57.872-124.721-60.592-3.248-0.224-6.496-0.319-9.744-0.319z" />
<glyph unicode="&#xe096;" glyph-name="location-pin" data-tags="location-pin" d="M515.664 896.368c-209.904 0-387.664-178.768-387.664-390.544 0-221.76 206.032-448.544 344.624-607.936 0.528-0.64 22.929-25.519 50.528-25.519h2.448c27.6 0 49.84 24.88 50.399 25.519 130.064 149.52 320 396.048 320 607.936 0 211.776-138.656 390.544-380.336 390.544zM528.496-59.184c-1.12-1.12-2.753-2.369-4.193-3.409-1.472 1.008-3.071 2.288-4.255 3.408l-16.736 19.248c-131.392 150.736-311.312 357.152-311.312 545.761 0 177.008 148.224 326.56 323.664 326.56 218.528 0 316.336-164 316.336-326.56 0-143.184-102.128-333.296-303.504-565.008zM513.119 702.592c-106.032 0-192-85.968-192-192s85.968-192 192-192 192 85.968 192 192-85.968 192-192 192zM513.119 382.592c-70.576 0-129.473 58.816-129.473 129.408 0 70.576 57.424 128 128 128 70.624 0 128-57.424 128-128 0.032-70.592-55.903-129.408-126.527-129.408z" />
<glyph unicode="&#xe09b;" glyph-name="star" data-tags="star" d="M512 818.512l137.472-285.088 312.608-46.464-226.416-225.84 7.616-45.312 45.28-270.16-276.608 148.784-276.592-148.848 45.296 270.224 7.584 45.312-226.336 225.872 312.592 46.464 20.544 42.544zM511.983 880.448c-28.656 0-54.784-16.176-66.977-41.456l-115.904-240.64-266.704-39.664c-27.392-4.096-50.144-22.8-58.976-48.384-8.816-25.664-2.145-53.904 17.199-73.152l195.408-195.2-45.328-270.656c-4.56-27.28 7.232-54.624 30.368-70.576 12.72-8.736 27.664-13.152 42.624-13.152 12.32 0 24.641 2.992 35.793 8.977l232.496 125.184 232.512-125.184c11.184-5.984 23.504-8.977 35.776-8.977 14.96 0 29.904 4.416 42.656 13.152 23.104 15.952 34.911 43.296 30.319 70.576l-45.344 270.656 195.504 195.2c19.344 19.248 25.968 47.504 17.151 73.152-8.848 25.616-31.6 44.32-58.976 48.385l-266.656 39.664-115.968 240.64c-12.112 25.312-38.256 41.455-66.976 41.455z" />
<glyph unicode="&#xe09c;" glyph-name="symble-female" data-tags="symble-female" d="M623.696 896.224c-220.912 0-400-179.073-400-400.001 0-98.512 35.68-188.672 94.735-258.368l-127.312-128.096-135.264 136.544c-12.48 12.496-32.753 12.496-45.249 0s-12.496-32.752 0-45.248l135.392-136.688-136.352-137.184c-12.496-12.496-12.496-32.784 0-45.248 12.48-12.496 32.753-12.496 45.249 0l136.144 136.992 136.464-137.76c12.496-12.496 32.752-12.496 45.248 0s12.496 32.752 0 45.248l-136.608 137.904 127.408 128.192c69.952-59.968 160.769-96.288 260.129-96.288 220.912 0 400 179.088 400 400 0.016 220.928-179.072 400-399.984 400zM623.696 159.679c-185.856 0-336.528 150.688-336.528 336.545s150.672 336.528 336.528 336.528 336.528-150.672 336.528-336.528c0.016-185.856-150.656-336.545-336.528-336.545z" />
<glyph unicode="&#xe09d;" glyph-name="symbol-male" data-tags="symbol-male" d="M1023.3 873.344c0.144 6.48-1.378 12.289-5.586 16.433-4.144 4.176-9.951 6.72-16.399 6.527l-11.696-0.272c-0.224 0-0.384-0.080-0.64-0.112l-293.504 1.024c-12.928-0.288-23.616-10.992-23.92-23.92l-0.032-16.432c1.968-15.248 13.952-24.16 26.88-23.872l215.216-0.432-256.144-254.592c-69.488 58.24-159.008 93.36-256.768 93.36-220.928 0-400-179.072-400-400 0-220.912 179.072-400 400-400 220.912 0 400 179.088 400 400 0 100.112-36.864 191.568-97.664 261.712l256.896 255.312-0.944-219.152c-0.304-12.928 9.952-24.176 22.896-23.888l16.416 0.032c12.96 0.304 23.648 8 23.92 20.928l0.672 295.008c0 0.24-0.88 0.4-0.88 0.624zM737.229 271.057c0-185.856-150.672-336.528-336.544-336.528-185.856 0-336.528 150.672-336.528 336.528s150.672 336.528 336.528 336.528c185.872 0.016 336.544-150.656 336.544-336.528z" />
<glyph unicode="&#xe0cd;" glyph-name="phone" data-tags="phone" d="M282 436c62-120 162-220 282-282l94 94c12 12 30 16 44 10 48-16 100-24 152-24 24 0 42-18 42-42v-150c0-24-18-42-42-42-400 0-726 326-726 726 0 24 18 42 42 42h150c24 0 42-18 42-42 0-54 8-104 24-152 4-14 2-32-10-44z" />
<glyph unicode="&#xe313;" glyph-name="keyboard_arrow_down" data-tags="keyboard_arrow_down" d="M316 562l196-196 196 196 60-60-256-256-256 256z" />
<glyph unicode="&#xe314;" glyph-name="keyboard_arrow_left" data-tags="keyboard_arrow_left" d="M658 210l-60-60-256 256 256 256 60-60-196-196z" />
<glyph unicode="&#xe315;" glyph-name="keyboard_arrow_right" data-tags="keyboard_arrow_right" d="M366 198l196 196-196 196 60 60 256-256-256-256z" />
<glyph unicode="&#xe316;" glyph-name="keyboard_arrow_up" data-tags="keyboard_arrow_up" d="M316 238l-60 60 256 256 256-256-60-60-196 196z" />
<glyph unicode="&#xe600;" glyph-name="phone2" data-tags="phone" d="M262.2 859c37.4-51.6 82.002-118.197 133.602-199.598 13-22 11-48.4-5.8-79.4-6.4-13-22.601-42.6-48.4-89.199 28.4-40 71.601-89.2 129.801-147.2s106.601-101.4 145.2-129.801c46.4 27.2 76.2 43.8 89.2 50.399 16.8 9 33 13.6 48.4 13.6 11.6 0 22-2.6 31-7.8 59.4-36.2 126.601-80.8 201.4-133.6 14.2-10.4 22.2-24.601 24.2-42.601 2-18.2-3.6-37.4-16.399-58.2-6.4-9-16.801-22.2-31.001-39.8-14.2-17.4-35.601-39.4-64.001-65.801s-51.601-39.801-69.801-39.801h-2c-136.6 5.4-305 107.801-504.4 307.201-199.6 199.6-302 367.8-307.2 504.6 0 18 13.2 41.6 39.8 70.8 26.4 29 48.2 50 64.8 63 16.8 12.8 31 23.2 42.6 31 14.2 10.4 30.4 15.4 48.4 15.4 22.2 0 38.8-7.8 50.6-23.2zM198.202 818.402c-27.2-19.4-52.603-41.198-76.603-64.998-23.8-24-37.8-41.6-41.6-53.199 5.2-120.2 101-273.2 287.6-459.2s340-282.2 460-288.601c10.4 3.8 27.4 18 51.4 42.6s45.6 50.399 64.8 77.399c3.8 5.2 5.2 9.601 3.8 13.601-77.4 54.2-142 97.4-193.8 129.801-5.2 0-11.601-2-19.4-5.8-11.6-6.4-40.6-22.601-87.199-48.4l-33-19.4-33 21.4c-42.6 29.6-94.199 75.6-154.999 137.6-60.6 60.6-105.8 112.399-135.6 154.999l-23.2 31 19.4 34.8c25.8 46.4 42 75.601 48.4 87.2 3.8 7.8 5.8 14.2 5.8 19.4-46 73.4-88.6 138-127.399 193.6h-2c-5 0-9.6-1.4-13.399-3.801z" />
<glyph unicode="&#xe838;" glyph-name="star2" data-tags="star" d="M512 160l-264-160 70 300-232 202 306 26 120 282 120-282 306-26-232-202 70-300z" />
<glyph unicode="&#xe839;" glyph-name="star_half" data-tags="star_half" d="M512 238l160-96-42 182 142 124-188 16-72 172v-398zM938 502l-232-202 70-300-264 160-264-160 70 300-232 202 306 26 120 282 120-282z" />
<glyph unicode="&#xe83a;" glyph-name="star_border" data-tags="star_border" d="M512 238l160-96-42 182 142 124-188 16-72 172-72-172-188-16 142-124-42-182zM938 502l-232-202 70-300-264 160-264-160 70 300-232 202 306 26 120 282 120-282z" />
<glyph unicode="&#xe870;" glyph-name="cross" data-tags="cross, cancel" d="M548.739 358.675l289.382 289.381c10.008 10.008 10.008 26.232 0 36.24-10.007 10.007-26.232 10.007-36.238 0l-289.382-289.382-289.381 289.382c-10.008 10.007-26.232 10.007-36.24 0-10.007-10.008-10.007-26.232 0-36.24l289.382-289.381-289.382-289.382c-10.007-10.007-10.007-26.232 0-36.238 5.005-5.003 11.561-7.505 18.12-7.505s13.115 2.501 18.12 7.506l289.381 289.381 289.382-289.382c5.003-5.003 11.56-7.505 18.119-7.505s13.115 2.501 18.119 7.506c10.008 10.007 10.008 26.232 0 36.238l-289.381 289.381z" />
<glyph unicode="&#xe880;" glyph-name="cross-circle" data-tags="cross-circle, cross" d="M734.525 172.828l-209.078 185.847 209.078 185.848c10.576 9.403 11.529 25.599 2.128 36.176-9.403 10.576-25.599 11.533-36.177 2.128l-213.601-189.867-213.601 189.865c-10.578 9.401-26.775 8.448-36.176-2.128-9.403-10.576-8.45-26.775 2.128-36.176l209.078-185.847-209.079-185.847c-10.576-9.403-11.529-25.599-2.128-36.177 5.064-5.697 12.097-8.6 19.161-8.6 6.054 0 12.134 2.133 17.015 6.472l213.603 189.868 213.601-189.868c4.883-4.338 10.96-6.472 17.015-6.472 7.065 0 14.1 2.905 19.163 8.6 9.401 10.578 8.448 26.775-2.128 36.177zM486.875-128.2c-130.049 0-252.313 50.643-344.272 142.603s-142.603 214.223-142.603 344.272c0 130.050 50.644 252.313 142.603 344.272s214.222 142.603 344.272 142.603c130.049 0 252.313-50.644 344.272-142.603s142.603-214.223 142.603-344.272-50.643-252.313-142.603-344.272c-91.959-91.96-214.223-142.603-344.272-142.603zM486.875 794.301c-240.205 0-435.625-195.421-435.625-435.625s195.421-435.625 435.625-435.625 435.625 195.421 435.625 435.625-195.421 435.625-435.625 435.625z" />
<glyph unicode="&#xe881;" glyph-name="plus-circle" data-tags="plus-circle, plus, cross" d="M831.15 702.947c-91.959 91.959-214.225 142.603-344.274 142.603s-252.313-50.644-344.272-142.603-142.603-214.223-142.603-344.272 50.644-252.315 142.603-344.274 214.223-142.601 344.272-142.601 252.315 50.643 344.274 142.601 142.601 214.225 142.601 344.274-50.643 252.313-142.601 344.272zM486.875-76.95c-240.205 0-435.625 195.421-435.625 435.625s195.421 435.625 435.625 435.625c240.205 0 435.625-195.421 435.625-435.625s-195.421-435.625-435.625-435.625zM794.376 384.3h-281.875v281.875c0 14.152-11.473 25.625-25.625 25.625s-25.625-11.473-25.625-25.625v-281.875h-281.875c-14.152 0-25.625-11.472-25.625-25.625s11.473-25.625 25.625-25.625h281.875v-281.875c0-14.153 11.473-25.625 25.625-25.625s25.625 11.472 25.625 25.625v281.875h281.875c14.153 0 25.625 11.472 25.625 25.625s-11.472 25.625-25.625 25.625z" />
<glyph unicode="&#xe882;" glyph-name="circle-minus" data-tags="circle-minus, minus" d="M831.15 702.947c-91.959 91.959-214.225 142.603-344.274 142.603s-252.313-50.644-344.272-142.603-142.603-214.223-142.603-344.272 50.644-252.315 142.603-344.274 214.223-142.601 344.272-142.601 252.315 50.643 344.274 142.601 142.601 214.225 142.601 344.274-50.643 252.313-142.601 344.272zM486.875-76.95c-240.205 0-435.625 195.421-435.625 435.625s195.421 435.625 435.625 435.625c240.205 0 435.625-195.421 435.625-435.625s-195.421-435.625-435.625-435.625zM794.376 333.050h-615.001c-14.152 0-25.625 11.472-25.625 25.625s11.473 25.625 25.625 25.625h615.001c14.153 0 25.625-11.472 25.625-25.625s-11.472-25.625-25.625-25.625z" />
<glyph unicode="&#xe88e;" glyph-name="info" data-tags="info" d="M554 512v86h-84v-86h84zM554 170v256h-84v-256h84zM512 810c236 0 426-190 426-426s-190-426-426-426-426 190-426 426 190 426 426 426z" />
<glyph unicode="&#xe8b6;" glyph-name="search" data-tags="search" d="M406 298c106 0 192 86 192 192s-86 192-192 192-192-86-192-192 86-192 192-192zM662 298l212-212-64-64-212 212v34l-12 12c-48-42-112-66-180-66-154 0-278 122-278 276s124 278 278 278 276-124 276-278c0-68-24-132-66-180l12-12h34z" />
<glyph unicode="&#xe900;" glyph-name="border" data-tags="border" horiz-adv-x="1070" d="M525.714-128h-498.286c-15.543 0-27.429 11.886-27.429 27.429v475.429c0 5.486 3.657 9.143 9.143 9.143s9.143-3.657 9.143-9.143v-475.429c0-5.486 3.657-9.143 9.143-9.143h498.286c5.486 0 9.143-3.657 9.143-9.143s-3.657-9.143-9.143-9.143zM1060.571 365.714c-5.486 0-9.143 3.657-9.143 9.143v493.714c0 5.486-3.657 9.143-9.143 9.143h-516.571c-5.486 0-9.143 3.657-9.143 9.143s3.657 9.143 9.143 9.143h516.571c15.543 0 27.429-11.886 27.429-27.429v-493.714c0-5.486-3.657-9.143-9.143-9.143z" />
<glyph unicode="&#xe901;" glyph-name="wedding3" data-tags="wedding3" horiz-adv-x="987" d="M739.515 522.75c-0.366-0.038-0.79-0.060-1.219-0.060s-0.854 0.022-1.272 0.064c-88.977 17.788-183.805 80.458-225.453 148.927h-0.329l-1.384 1.582c-1.691 2.125-2.712 4.848-2.712 7.809 0 6.957 5.64 12.597 12.597 12.597 3.996 0 7.557-1.86 9.865-4.762l0.547-0.619c1.094-1.191 2.094-2.506 2.966-3.908 37.759-62.123 127.645-121.168 209.161-137.511 4.877-1.762 8.3-6.352 8.3-11.742 0-6.39-4.812-11.656-11.010-12.372zM850.818 642.356c-5.237 0.018-9.716 3.249-11.568 7.824-37.395 94.319-126.819 170.959-239.308 205.161-5.178 1.605-8.873 6.351-8.873 11.961 0 6.902 5.595 12.498 12.498 12.498 1.293 0 2.54-0.196 3.713-0.561 119.584-36.352 215.005-118.594 255.137-219.748 0.557-1.366 0.881-2.952 0.881-4.613 0-6.9-5.582-12.497-12.477-12.521zM250.613 524.727c-0.098-0.003-0.214-0.004-0.33-0.004-6.879 0-12.455 5.576-12.455 12.455 0 5.778 3.935 10.638 9.272 12.044 137.306 39.656 243.667 144.254 285.033 277.464 4.546 15.145 7.709 27.93 10.411 41.043-14.601 2.087-31.472 3.284-48.621 3.295-148.087 0-275.931-83.098-333.658-216.939-1.965-4.475-6.357-7.544-11.466-7.544-6.896 0-12.486 5.59-12.486 12.486 0 1.787 0.375 3.486 1.051 5.022 61.222 137.616 196.824 231.889 354.445 231.889 0.739 0 1.477-0.002 2.215-0.006 23.009-0.040 45.627-2.076 67.613-5.944 3.584-0.677 8.046-5.788 8.046-11.941 0-0.759-0.068-1.502-0.198-2.223-29.737-169.103-152.295-303.482-312.256-349.926-4.064-1.031-5.144-1.177-6.257-1.177-0.126 0-0.252 0.002-0.378 0.006zM73.411 186.93c-0.016 0-0.035 0-0.054 0-2.231 0-4.325 0.587-6.136 1.614l-60.895 34.235c-3.837 2.172-6.384 6.226-6.384 10.875 0 1.268 0.19 2.492 0.542 3.645l50.653 169.337c1.594 5.189 6.344 8.897 11.961 8.897 6.897 0 12.488-5.591 12.488-12.488 0-1.281-0.193-2.517-0.551-3.68l-47.819-159.782 52.060-29.325c3.742-2.211 6.212-6.225 6.212-10.815 0-6.759-5.356-12.267-12.055-12.512zM207.713-34.226c-0.001 0-0.002 0-0.003 0-2.748 0-5.288 0.89-7.347 2.397l-149.884 107.654c-3.143 2.303-5.16 5.98-5.16 10.129 0 0.823 0.079 1.627 0.231 2.405l55.342 292.050c1.139 5.813 6.193 10.139 12.257 10.139 6.892 0 12.478-5.587 12.478-12.478 0-0.827-0.081-1.636-0.234-2.418l-53.826-284.274 122.44-88.041-20.956 400.862c-0.011 0.197-0.017 0.427-0.017 0.659 0 6.888 5.584 12.472 12.472 12.472 6.656 0 12.095-5.215 12.453-11.781l22.275-426.594c0.011-0.197 0.017-0.427 0.017-0.659 0-6.915-5.606-12.521-12.521-12.521-0.006 0-0.012 0-0.018 0zM120.133 404.923c-0.326-0.008-0.71-0.013-1.095-0.013-16.358 0-30.711 8.588-38.794 21.502-2.784 4.767-4.669 10.133-5.426 15.855-4.87-1.86-10.509-3.071-16.43-3.077h-0.002c-25.231 1.475-45.134 22.296-45.134 47.766 0 7.864 1.897 15.284 5.259 21.829 2.804 4.706 6.523 8.887 10.908 12.242l-0.688 0.669c-9.669 7.633-15.818 19.354-15.818 32.511 0 0.154 0.001 0.308 0.003 0.462 0 25.743 21.285 48.346 45.536 48.346 5.924-0.009 11.563-1.22 16.689-3.401 0.499 6.046 2.384 11.413 5.167 16.191 8.564 12.911 23.248 21.443 39.924 21.443s31.359-8.532 39.923-21.469c2.784-4.753 4.67-10.119 5.425-15.842 4.87 1.858 10.508 3.068 16.429 3.077 24.254 0 45.54-22.603 45.54-48.37 0.001-0.13 0.002-0.284 0.002-0.439 0-13.157-6.149-24.877-15.731-32.444l-1.010-0.791c10.208-7.689 16.738-19.787 16.738-33.411 0 0 0 0 0 0 0-25.766-21.285-48.436-45.536-48.436-5.924 0.006-11.563 1.217-16.688 3.401-0.502-6.046-2.387-11.412-5.169-16.192-8.092-12.866-22.425-21.428-38.758-21.428-0.445 0-0.888 0.006-1.33 0.019zM109.853 481.563c0-0.021 0-0.045 0-0.069 0-2.278-0.612-4.413-1.68-6.25-8.798-15.229-11.039-28.079-6.558-36.185 4.255-5.576 10.904-9.138 18.386-9.138s14.131 3.562 18.345 9.082c4.72 8.162 2.413 21.012-6.549 36.3-0.738 1.549-1.169 3.365-1.169 5.283 0 6.915 5.606 12.521 12.521 12.521 4.23 0 7.97-2.098 10.237-5.309 8.857-15.328 18.873-23.697 28.231-23.697 11.598 0 20.56 12.587 20.56 23.46 0 13.18-13.18 21.022-36.771 21.022-6.897 0-12.488 5.591-12.488 12.488s5.591 12.488 12.488 12.488c1.115-0.090 2.415-0.141 3.726-0.141 9.874 0 19.069 2.903 26.78 7.902 3.826 2.895 6.398 7.646 6.398 12.997 0 0.023 0 0.046 0 0.070 0 10.804-8.962 23.39-20.56 23.39-9.358 0-19.374-8.435-28.205-23.658-2.284-3.335-6.071-5.494-10.363-5.494-6.915 0-12.521 5.606-12.521 12.521 0 2.052 0.493 3.988 1.368 5.697 8.798 15.218 11.038 28.068 6.557 36.174-4.255 5.576-10.904 9.138-18.386 9.138s-14.131-3.562-18.345-9.082c-4.72-8.162-2.413-21.012 6.549-36.3 0.738-1.549 1.169-3.365 1.169-5.283 0-6.915-5.606-12.521-12.521-12.521-4.23 0-7.97 2.098-10.237 5.309-8.857 15.328-18.873 23.697-28.231 23.697-11.598 0-20.56-12.587-20.56-23.394 0-0.010 0-0.021 0-0.033 0-5.361 2.571-10.122 6.548-13.117 7.566-4.912 16.767-7.814 26.646-7.814 1.305 0 2.599 0.051 3.879 0.15 6.727-0.011 12.318-5.602 12.318-12.498s-5.591-12.488-12.488-12.488c-17.661 0-29.918-4.481-34.597-12.587-1.158-2.657-1.831-5.754-1.831-9.007 0-11.734 8.763-21.422 20.102-22.876l0.115-0.012c9.358 0 19.374 8.435 28.205 23.658 2.25 3.467 6.102 5.729 10.482 5.729 6.761 0 12.264-5.387 12.45-12.104zM367.451-30.865c-0.143-0.001-0.313-0.002-0.483-0.002-17.206 0-32.964 6.204-45.158 16.496-13.415 11.317-21.944 28.266-21.944 47.208 0 15.097 5.418 28.929 14.416 39.657 9.742 11.547 24.34 18.891 40.652 18.891 13.029 0 24.964-4.686 34.211-12.464 9.085-7.617 15.195-18.685 16.315-31.19 0.045-0.513 0.063-0.903 0.063-1.298 0-6.888-5.584-12.472-12.472-12.472-6.494 0-11.829 4.963-12.418 11.303-0.515 5.904-3.34 11.013-7.548 14.519-4.875 4.053-11.156 6.496-18.008 6.496-8.632 0-16.358-3.878-21.532-9.986-5.323-6.365-8.535-14.585-8.535-23.555 0-11.273 5.072-21.36 13.059-28.106 7.983-6.663 18.282-10.682 29.52-10.682 2.018 0 4.006 0.13 5.955 0.381 16.172 2.243 30.155 11.091 39.189 23.722 28.851 38.265 34.848 104.757 16.528 182.451-0.106 0.612-0.167 1.317-0.167 2.036 0 6.915 5.606 12.521 12.521 12.521 5.596 0 10.334-3.671 11.938-8.735 19.794-85.098 12.479-159.102-20.734-203.123-13.108-18.104-33.022-30.586-55.916-33.693-2.603-0.271-5.128-0.398-7.683-0.398-0.623 0-1.244 0.008-1.864 0.023zM619.646-30.865c-0.040 0-0.088 0-0.136 0-2.947 0-5.855 0.168-8.714 0.494-22.974 3.113-42.891 15.598-55.828 33.467-33.115 44.261-40.957 118.265-20.924 203.275 1.629 5.153 6.367 8.824 11.963 8.824 6.915 0 12.521-5.606 12.521-12.521 0-0.719-0.061-1.424-0.177-2.11-18.309-77.687-12.313-144.113 16.419-182.202 9.143-12.832 23.128-21.704 39.234-23.952 2.024-0.262 4.012-0.391 6.030-0.391 11.238 0 21.537 4.018 29.539 10.697 7.987 6.731 13.072 16.831 13.072 28.118 0 8.988-3.224 17.222-8.58 23.61-5.161 6.092-12.887 9.97-21.519 9.97-6.852 0-13.133-2.443-18.020-6.506-4.196-3.497-7.021-8.606-7.527-14.381-0.599-6.469-5.934-11.432-12.428-11.432-6.888 0-12.472 5.584-12.472 12.472 0 0.394 0.018 0.785 0.054 1.17 1.129 12.633 7.239 23.701 16.333 31.326 9.232 7.751 21.152 12.423 34.163 12.423 16.298 0 30.883-7.331 40.638-18.876 8.926-10.692 14.305-24.479 14.305-39.523 0-19.078-8.652-36.135-22.247-47.462-12.181-10.288-27.931-16.492-45.13-16.492-0.201 0-0.402 0.001-0.602 0.003zM290.547 617.842c-6.881 0.045-12.442 5.633-12.442 12.521 0 4.631 2.515 8.675 6.253 10.841 97.59 54.596 171.397 158.584 187.278 190.282 2.092 4.131 6.306 6.912 11.17 6.912 6.893 0 12.481-5.588 12.481-12.481 0-2.029-0.484-3.946-1.344-5.64-19.737-39.468-96.641-144.511-197.268-200.788-1.76-1.026-3.872-1.636-6.125-1.647zM167.844-128h-59.638c-6.879 0-12.455 5.576-12.455 12.455v155.85c0 6.897 5.591 12.488 12.488 12.488s12.488-5.591 12.488-12.488v-143.33h34.729v108.337c0 6.897 5.591 12.488 12.488 12.488s12.488-5.591 12.488-12.488v-120.99c-0.074-6.822-5.622-12.324-12.454-12.324-0.047 0-0.093 0-0.14 0.001zM913.817 186.93c-6.881 0.045-12.442 5.633-12.442 12.521 0 4.631 2.515 8.675 6.253 10.841l52.054 29.291-50.742 154.994c-0.394 1.161-0.621 2.498-0.621 3.888 0 6.894 5.589 12.483 12.483 12.483 5.504 0 10.176-3.562 11.836-8.507l53.931-164.835c0.397-1.164 0.626-2.505 0.626-3.9 0-4.639-2.536-8.686-6.298-10.829l-61.018-34.3c-1.741-1.015-3.828-1.624-6.056-1.647zM779.45-34.226c-6.894 0.028-12.472 5.623-12.472 12.521 0 0.232 0.006 0.462 0.019 0.691l22.338 426.86c0.274 6.589 5.682 11.826 12.313 11.826 0.305 0 0.607-0.011 0.907-0.033 6.559-0.346 11.778-5.782 11.778-12.436 0-0.261-0.008-0.52-0.024-0.776l-20.954-400.827 122.374 88.041-53.18 279.608c-0.141 0.703-0.221 1.512-0.221 2.339 0 6.892 5.587 12.478 12.478 12.478 6.064 0 11.118-4.326 12.244-10.060l54.709-287.529c0.143-0.708 0.225-1.522 0.225-2.355 0-4.141-2.021-7.811-5.131-10.075l-150.021-107.901c-2.025-1.483-4.565-2.373-7.312-2.373-0.024 0-0.048 0-0.072 0zM867.029 404.923c-0.326-0.008-0.71-0.013-1.095-0.013-16.358 0-30.711 8.588-38.794 21.502 0.537 1.664 0.915 3.381 0.915 5.186 0 6.988-5.665 12.653-12.653 12.653-4.125 0-7.789-1.974-10.098-5.028-24.274-0.032-45.559 22.571-45.559 48.404-0.001 0.121-0.002 0.264-0.002 0.407 0 13.166 6.149 24.897 15.731 32.476l0.943 0.725-0.857 0.659c-9.669 7.633-15.818 19.354-15.818 32.511 0 0.154 0.001 0.308 0.003 0.462 0 25.743 21.285 48.346 45.536 48.346 2.333-3.086 5.997-5.060 10.121-5.060 6.988 0 12.653 5.665 12.653 12.653 0 1.805-0.378 3.522-1.059 5.076 8.706 13.033 23.389 21.565 40.065 21.565s31.359-8.532 39.923-21.469c-0.539-1.65-0.917-3.367-0.917-5.172 0-6.988 5.665-12.653 12.653-12.653 4.125 0 7.789 1.974 10.098 5.028 24.274 0.032 45.559-22.571 45.559-48.338 0.001-0.13 0.002-0.284 0.002-0.439 0-13.157-6.149-24.877-15.731-32.444l-0.944-0.725 0.857-0.659c9.669-7.646 15.818-19.376 15.818-32.542 0-0.143-0.001-0.286-0.002-0.429 0-25.745-21.285-48.348-45.536-48.348-2.333 3.086-5.997 5.060-10.121 5.060-6.988 0-12.653-5.665-12.653-12.653 0-1.805 0.378-3.522 1.059-5.076-8.22-13.062-22.593-21.679-38.978-21.679-0.394 0-0.786 0.005-1.178 0.015zM856.881 481.563c0-0.021 0-0.045 0-0.069 0-2.278-0.612-4.413-1.68-6.25-8.798-15.229-11.039-28.079-6.558-36.185 4.255-5.576 10.904-9.138 18.386-9.138s14.131 3.562 18.345 9.082c4.72 8.162 2.413 21.012-6.549 36.3-0.738 1.549-1.169 3.365-1.169 5.283 0 6.915 5.606 12.521 12.521 12.521 4.23 0 7.97-2.098 10.237-5.309 8.857-15.328 18.873-23.697 28.231-23.697 11.598 0 20.56 12.587 20.56 23.46 0 0.010 0 0.021 0 0.033 0 5.361-2.571 10.122-6.548 13.117-7.56 4.913-16.756 7.815-26.629 7.815-1.311 0-2.611-0.051-3.896-0.152-6.727 0.011-12.318 5.602-12.318 12.498s5.591 12.488 12.488 12.488c1.11-0.089 2.404-0.14 3.709-0.14 9.879 0 19.080 2.902 26.797 7.901 3.826 2.908 6.397 7.668 6.397 13.030 0 0.012 0 0.023 0 0.035 0 10.806-8.962 23.392-20.56 23.392-9.358 0-19.374-8.435-28.205-23.658-2.202-3.751-6.215-6.229-10.807-6.229-6.898 0-12.49 5.592-12.49 12.49 0 2.306 0.625 4.465 1.714 6.319 8.799 15.23 11.039 28.080 6.558 36.186-4.255 5.576-10.904 9.138-18.386 9.138s-14.131-3.562-18.345-9.082c-4.72-8.162-2.413-21.012 6.549-36.3 1.058-1.795 1.682-3.955 1.682-6.26 0-6.898-5.592-12.49-12.49-12.49-4.592 0-8.606 2.478-10.776 6.171-8.862 15.347-18.879 23.716-28.237 23.716-11.598 0-20.56-12.587-20.56-23.394 0-0.020 0-0.043 0-0.066 0-5.351 2.572-10.102 6.548-13.083 7.567-4.912 16.768-7.814 26.647-7.814 1.305 0 2.599 0.051 3.879 0.15 6.727-0.011 12.318-5.602 12.318-12.498s-5.591-12.488-12.488-12.488c-1.115 0.090-2.415 0.141-3.726 0.141-9.874 0-19.069-2.903-26.78-7.902-3.827-2.908-6.398-7.669-6.398-13.030 0-0.012 0-0.023 0-0.035 0-10.806 8.962-23.458 20.56-23.458 9.358 0 19.374 8.435 28.205 23.658 2.189 3.77 6.207 6.264 10.807 6.264 6.879 0 12.455-5.576 12.455-12.455 0-0.001 0-0.003 0-0.004zM878.957-128h-59.638c-6.879 0-12.455 5.576-12.455 12.455v120.858c0 6.897 5.591 12.488 12.488 12.488s12.488-5.591 12.488-12.488v-108.535h34.729v143.527c0 6.897 5.591 12.488 12.488 12.488s12.488-5.591 12.488-12.488v-155.785c0-0.020 0-0.043 0-0.067 0-6.879-5.576-12.455-12.455-12.455-0.046 0-0.093 0-0.139 0.001zM496.613 266.997c-80.792 0-167.712 17.924-167.712 57.266s86.92 57.266 167.712 57.266 167.712-17.924 167.712-57.266-86.92-57.266-167.712-57.266zM496.613 356.487c-92.719 0-142.737-22.933-142.737-32.29s50.017-32.29 142.737-32.29 142.802 23.13 142.802 32.356-50.083 32.29-142.802 32.29zM496.613 223.899c-65.899 0-123.362 10.939-161.386 30.709-4.022 2.127-6.716 6.284-6.716 11.071 0 6.894 5.589 12.483 12.483 12.483 2.107 0 4.093-0.522 5.834-1.444 34.463-17.958 87.709-27.842 149.786-27.842s117.959 10.28 149.854 27.414c1.715 0.942 3.758 1.496 5.931 1.496 6.904 0 12.501-5.597 12.501-12.501 0-4.732-2.629-8.849-6.506-10.972-35.98-19.275-94.893-30.412-161.781-30.412zM493.581-29.086c-6.879 0-12.455 5.576-12.455 12.455v218.916c0 6.897 5.591 12.488 12.488 12.488s12.488-5.591 12.488-12.488v-218.85c0-0.020 0-0.043 0-0.066 0-6.879-5.576-12.455-12.455-12.455-0.023 0-0.046 0-0.070 0z" />
<glyph unicode="&#xe902;" glyph-name="flowers" data-tags="flowers" horiz-adv-x="877" d="M454.072 369.013c-35.221 0-63.774-28.553-63.774-63.774s28.553-63.774 63.774-63.774c35.221 0 63.774 28.553 63.774 63.774s-28.553 63.774-63.774 63.774zM488.722 305.239c0-19.137-15.514-34.651-34.651-34.651s-34.651 15.514-34.651 34.651c0 19.137 15.514 34.651 34.651 34.651 0.005 0 0.011 0 0.016 0 18.763 0 34.043-14.914 34.633-33.534zM873.493 523.984c0 203.439-195.149 368.827-435.152 368.827s-435.152-165.388-435.152-368.827c0.054-48.531 10.942-94.506 30.373-135.655l-23.996 1.942 95.236-514.87h666.652l95.449 514.87h-23.171c18.676 39.192 29.635 85.158 29.761 133.67zM34.863 523.984c0 186.008 180.906 337.153 403.903 337.153s403.903-151.145 403.903-337.153c-0.215-48.965-12.623-94.985-34.341-135.241l-19.441 1.528c-6.036 18.425-19.718 32.872-37.196 39.814 4.918 8.651 8.092 18.988 8.092 30.066 0 13.416-4.655 25.744-12.437 35.459-19.258 19.445-55.397 15.831-88.772-8.828-21.258 35.288-53.783 52.295-79.080 41.241s-33.163-40.603-25.935-76.529c-13.901-1.723-26.484-6.087-37.675-12.583l-6.967-3.148c-16.581 48.468-50.594 78.442-83.757 73.34-36.564-5.74-60.373-51.232-57.397-108.629-2.826 0.156-6.132 0.245-9.46 0.245s-6.634-0.089-9.918-0.265c4.105 6.851 6.247 14.962 6.247 23.573 0 10.381-3.113 20.035-8.457 28.079-14.976 19.795-47.076 22.559-80.238 7.040-12.967 34.225-38.052 54.633-63.774 50.807s-45.492-35.926-44.642-77.167c-41.453 2.976-73.765-13.393-79.718-40.178 0-1.063 0-2.338 0-3.614h-9.354c-21.154 39.082-33.588 85.556-33.588 134.934 0 0.019 0 0.038 0 0.057zM652.835 296.098c-9.34 19.191-23.974 34.577-42.001 44.592 1.824 3.451 3.737 6.852 5.438 10.041 8.82-9.085 21.147-14.723 34.791-14.723 14.951 0 28.32 6.769 37.211 17.41l6.015-16.717c10.204-29.336 5.315-54.421-5.74-59.31-0.856-0.070-1.853-0.109-2.859-0.109-13.647 0-25.587 7.307-32.123 18.221l-0.094 0.17zM590.123 502.514c12.542 5.315 36.776-11.905 50.594-42.516l8.078-18.494 14.455 14.030c24.659 23.809 53.783 30.824 63.774 21.258s4.039-26.998-7.865-45.28l-10.204-15.731 17.857-5.527c21.258-6.59 35.926-18.92 35.076-29.761s-22.534-24.234-53.145-24.234h-18.92c6.164 7.982 9.909 18.108 9.991 29.105-0.006 27.018-21.894 48.902-48.893 48.902-10.417 0-20.074-3.258-28.006-8.81-0.912 2.264-1.972 4.074-3.141 5.804-8.832 11.236-21.895 19.061-36.803 21.054-7.941 26.179-2.627 45.949 7.152 50.201zM483.833 131.773c-21.258-3.401-47.405 27.423-57.184 69.939l-4.464 19.557-16.794-10.842c-17.344-12.163-38.579-19.922-61.54-21.243-1.201-0.095-2.225-0.141-3.259-0.141-9.809 0-18.655 4.127-24.895 10.739-10.857 14.26-2.779 42.533 19.329 68.255l12.117 14.243-17.006 7.653c-31.037 14.030-50.169 36.139-46.343 53.57s30.399 30.186 63.774 30.186c11.459-0.032 22.612-1.269 33.361-3.591l18.722-3.849-2.976 19.983c-7.228 47.831 7.44 91.622 32.1 95.449s47.193-27.21 57.184-69.939l4.464-19.557 16.794 10.842c17.348 12.153 38.58 19.91 61.536 21.243 1.179 0.090 2.173 0.133 3.178 0.133 9.834 0 18.705-4.122 24.98-10.732 10.856-14.258 2.778-42.531-19.331-68.253l-12.33-14.243 18.282-7.865c31.037-14.030 50.169-36.139 46.555-53.783s-30.399-29.974-63.774-29.974c-11.462 0.038-22.614 1.275-33.365 3.591l-18.717 3.849 2.976-19.983c5.102-47.831-9.566-91.622-34.013-95.449zM672.179 384.957c0-11.74-9.518-21.258-21.258-21.258s-21.258 9.518-21.258 21.258c0 11.74 9.518 21.258 21.258 21.258 11.369-0.469 20.408-9.8 20.408-21.241 0-0.006 0-0.012 0-0.018zM264.663 304.601c5.102-34.013-6.165-61.648-19.557-63.774s-29.336 16.794-36.351 46.98l-4.464 19.557-16.794-10.842c-26.147-17.006-51.444-18.069-58.672-8.503s0 26.998 13.605 43.792l12.117 14.243-17.006 7.653c-19.77 8.928-33.163 23.596-30.824 33.8s31.249 22.959 63.774 15.944l19.77-4.039-2.976 19.983c-5.102 34.013 6.165 61.648 19.557 63.774h1.701c11.905 0 28.061-18.069 34.651-46.98l4.464-19.557 16.794 10.842c26.147 17.006 51.444 18.069 58.672 8.503 1.1-3.365 1.734-7.238 1.734-11.259 0-10.501-4.326-19.991-11.292-26.786-16.555-3.29-30.984-10.788-42.597-21.331-6.174 20.505-24.87 35.115-46.978 35.115-27.121 0-49.106-21.986-49.106-49.106s21.986-49.106 49.106-49.106c12.633 0 24.151 4.77 32.853 12.607 1.914-7.069 4.749-13.219 8.401-18.785l-0.155 0.251v-2.126zM245.743 361.785c0-11.74-9.518-21.258-21.258-21.258s-21.258 9.518-21.258 21.258c0 11.74 9.518 21.258 21.258 21.258 11.301-0.466 20.3-9.687 20.408-21.035zM745.945-93.137h-614.57l-83.544 451.521h38.69c6.376-8.525 14.142-15.613 23.026-21.054-7.558-9.883-12.354-22.382-12.354-36 0-10.893 3.068-21.069 8.388-29.711 14.953-19.737 47.052-22.5 80.427-6.769 11.905-31.249 34.013-51.444 56.759-51.444h6.165c24.659 3.826 41.453 30.612 44.004 65.475 2.976-2.126 6.165-4.252 9.354-6.165-22.746-33.163-26.573-67.388-9.779-89.496 11.22-13.119 27.79-21.382 46.29-21.382 1.365 0 2.719 0.045 4.061 0.134 22.271 0.626 43.193 6.613 61.53 16.714 14.604-45.422 44.365-74.332 75.402-74.332h7.653c36.564 5.74 60.373 51.232 57.609 108.629 5.792-0.666 12.516-1.051 19.329-1.063 45.934 0 80.159 18.069 90.15 46.343 8.164-5.417 18.111-8.777 28.818-9.138 0.194-0.003 0.314-0.004 0.433-0.004 5.638 0 11.001 1.174 15.86 3.29l5.058 2.664c19.132 12.117 27.21 41.028 21.258 73.765 23.322 1.43 43.739 12.764 57.272 29.811l46.467 0.163z" />
<glyph unicode="&#xe903;" glyph-name="vk" data-tags="vk" d="M807.381 811.093c72.513-0.097 131.261-58.891 131.285-131.411v-590.936c-0.218-72.359-58.903-130.939-131.281-130.987h-590.767c-72.383 0.048-131.067 58.628-131.285 130.966v590.954c0.024 72.523 58.773 131.316 131.276 131.413h590.772zM807.381 896.427h-590.763c-119.602-0.194-216.497-97.134-216.619-216.735v-590.945c0.121-119.612 97.017-216.553 216.6-216.747h590.781c119.602 0.194 216.497 97.134 216.619 216.735v590.945c-0.121 119.612-97.017 216.553-216.6 216.747h-0.019zM807.68 544.427c-2.075 3.446-5.716 5.765-9.913 5.972-4.27 1.123-9.139 1.768-14.159 1.768-2.63 0-5.219-0.177-7.755-0.52l-102.36-1.247-4.651-1.28-1.195-0.853h-1.152c-1.831-0.975-3.291-2.436-4.24-4.212-1.179-1.761-2.16-3.895-2.928-5.175-12.005-30.074-24.148-55.061-37.817-79.066-6.13-10.107-13.511-21.627-20.509-31.867-5.714-8.483-11.465-15.86-17.674-22.819-3.728-4.123-7.912-8.037-12.405-11.578-2.551-2.201-5.598-3.477-8.941-3.576-1.988 0.34-3.75 0.934-5.377 1.756-3.116 1.768-5.702 4.381-7.436 7.53-2.148 3.795-3.65 8.114-4.295 12.707-0.716 4.271-1.134 8.994-1.174 13.806 0 3.879 0 8.999 0.597 16.253s0.555 11.52 0.555 14.080v27.733c-0.007 0.623-0.012 1.359-0.012 2.096 0 7.53 0.438 14.957 1.291 22.258l-0.084 17.032c0.015 0.565 0.024 1.23 0.024 1.898 0 4.759-0.443 9.415-1.291 13.927-0.911 3.663-2.111 7.22-3.591 10.628-1.399 2.935-3.793 5.686-6.76 7.636-3.1 1.709-6.607 3.035-10.31 3.838-12.467 3.072-26.483 4.807-40.904 4.807-1.701 0-3.397-0.024-5.086-0.072-5.845 0.682-12.911 1.068-20.067 1.068-21.092 0-41.401-3.354-60.422-9.558-3.576-2.097-7.805-5.237-11.409-8.983-3.94-5.562-4.708-8.122-2.361-8.122 11.857-0.78 22.22-6.58 29.076-15.274l1.26-3.499c2.032-4.554 3.65-9.856 4.594-15.387 1.518-7.042 2.755-15.202 3.498-23.503 0.427-7.036 0.637-14.342 0.637-21.696s-0.211-14.659-0.626-21.91c-0.485-8.996-1.52-18.239-3.056-27.313-0.801-4.334-2.432-9.49-4.654-14.317-1.503-3.056-3.25-5.992-5.216-8.761-2.656-0.61-5.857-1.077-9.166-1.087-4.493 0.32-8.526 2.039-11.728 4.719-5.341 3.611-9.952 7.841-13.871 12.658-5.595 6.76-10.796 14.148-15.399 21.932q-9.226 15.517-19.679 35.357l-4.693 9.387c-3.115 5.973-7.552 15.36-13.397 27.307s-11.093 23.467-15.744 34.56c-1.35 4.419-4.275 8.010-8.106 10.195l-1.238 1.325c-1.579 0.853-3.499 1.707-5.845 2.987-1.939 1.076-4.252 1.71-6.714 1.71-0.1 0-0.199-0.001-0.299-0.003h-92.145c-0.801 0.109-1.727 0.171-2.667 0.171-6.394 0-12.118-2.871-15.953-7.394l-1.22-0.884c-0.733-1.615-1.161-3.503-1.161-5.491 0-0.17 0.003-0.339 0.009-0.507 0.239-3.422 1.079-6.615 2.416-9.533 13.114-30.976 27.492-60.842 43.066-90.282s29.184-52.48 40.832-70.4 23.552-34.56 35.584-50.347 20.053-25.6 23.936-30.293c2.771-3.521 5.84-6.603 9.23-9.299l8.263-8.194c7.022-6.843 14.644-13.151 22.752-18.812 10.699-7.641 21.92-15.321 34.421-22.575 12.568-7.278 27.102-13.4 42.425-17.613 12.381-3.669 25.108-5.604 38.287-5.604 4.437 0 8.823 0.219 13.147 0.648l36.787-0.044c0.436-0.027 0.945-0.042 1.457-0.042 6.681 0 12.751 2.616 17.242 6.879l1.141 1.27c0.994 1.843 1.802 3.979 2.314 6.228 0.765 2.654 1.186 5.506 1.186 8.456 0 0.088 0 0.175-0.001 0.263-0.010 0.587-0.016 1.296-0.016 2.006 0 8.644 0.86 17.088 2.499 25.25 1.119 5.651 2.934 11.366 5.317 16.776 1.75 3.229 4.080 6.458 6.806 9.304 1.783 1.745 3.689 3.42 5.681 4.991 0.933 0.8 1.929 1.263 3.026 1.392 1.080 0.166 2.297 0.259 3.536 0.259 5.772 0 11.070-2.029 15.221-5.412 7.668-5.721 14.37-12.179 20.187-19.382q10.063-11.73 22.906-25.81c6.904-7.811 14.557-14.692 22.926-20.629l7.41-4.971c4.88-2.677 10.546-5.004 16.484-6.686 4.967-1.917 10.052-2.947 15.377-2.947 1.567 0 3.114 0.089 4.635 0.263l85.147 2.543c0.658-0.037 1.427-0.058 2.202-0.058 6.402 0 12.467 1.437 17.893 4.006 3.537 1.701 6.437 4.865 7.86 8.742 0.404 1.777 0.616 3.692 0.616 5.656s-0.211 3.879-0.613 5.724c-0.37 2.994-1.179 5.874-2.351 8.56-0.731 1.503-1.499 3.21-2.267 4.49-17.723 28.401-38.958 52.623-63.507 72.989l-0.493 1.678h-1.152q-20.992 21.333-26.837 28.16c-4.17 4.438-6.732 10.428-6.732 17.017 0 3.566 0.75 6.956 2.101 10.022 8.68 16.249 18.76 30.399 30.409 43.084q12.664 17.13 20.899 28.010c38.869 51.2 55.467 83.627 50.133 97.707v0z" />
<glyph unicode="&#xe904;" glyph-name="fb" data-tags="fb" d="M807.381 811.093c72.513-0.097 131.261-58.891 131.285-131.411v-590.936c-0.218-72.359-58.903-130.939-131.281-130.987h-590.767c-72.383 0.048-131.067 58.628-131.285 130.966v590.954c0.024 72.523 58.773 131.316 131.276 131.413h590.772zM807.381 896.427h-590.763c-119.602-0.194-216.497-97.134-216.619-216.735v-590.945c0.121-119.612 97.017-216.553 216.6-216.747h590.781c119.602 0.194 216.497 97.134 216.619 216.735v590.945c-0.121 119.612-97.017 216.553-216.6 216.747h-0.019zM630.144 561.493h-59.093c-40.875 0-59.051-2.987-59.051-29.44v-29.44h118.144l-14.763-118.187h-103.381v-295.68h-118.144v295.68h-59.093v118.187h59.093v58.88c0 83.2 43.349 118.187 148.267 118.187h88.021v-118.187z" />
<glyph unicode="&#xe905;" glyph-name="inst" data-tags="inst" d="M512 804.267c136.533 0 152.917-0.853 206.891-2.987 34.274-0.499 66.875-7.029 96.995-18.571 42.838-17.038 77.61-51.838 94.859-95.476 11.185-29.254 17.612-61.752 18.021-95.697 2.434-54.362 2.988-70.575 2.988-207.108s-0.555-153.173-2.987-206.933c-0.427-34.271-6.852-66.913-18.27-97.102-17.002-42.836-51.774-77.636-95.394-94.922-29.367-11.102-61.983-17.481-96.034-17.894-54.152-2.562-70.365-2.988-207.069-2.988s-152.917 0.427-206.891 2.987c-34.23 0.415-66.845 6.794-97.028 18.142-42.805 17.040-77.577 51.84-94.827 95.479-11.192 29.386-17.62 62.032-18.021 96.127-2.476 53.932-2.988 70.146-2.988 207.106s0.512 152.747 2.987 206.933c0.387 34.117 6.816 66.618 18.265 96.641 17.008 42.871 51.78 77.671 95.4 94.957 29.337 11.293 61.939 17.823 96.001 18.32 54.185 2.136 70.398 2.989 207.102 2.989zM512 896.427c-139.051 0-156.501-0.853-211.115-2.987-44.922-1.152-87.478-9.815-126.936-24.775-32.839-12.795-63.080-32.961-87.976-58.382-25.501-24.867-45.599-55.058-58.522-88.801-14.751-38.477-23.398-81.012-24.371-125.438-2.482-55.458-3.079-72.525-3.079-211.618s0.597-156.587 3.072-211.2c0.882-44.829 9.539-87.377 24.671-126.711 12.74-32.994 32.822-63.305 58.16-88.301 24.878-25.507 55.157-45.566 89.007-58.349 38.505-14.847 81.091-23.532 125.586-24.446 55.003-2.566 72.453-3.42 211.504-3.42s156.501 0.853 211.072 3.413c44.883 0.911 87.471 9.597 126.843 24.758 32.998 12.476 63.292 32.535 88.106 57.965 25.415 25.074 45.497 55.384 58.514 89.202 14.832 38.511 23.487 81.056 24.387 125.504 2.481 54.997 3.078 72.49 3.078 211.584s-0.597 156.16-3.072 211.2c-1.003 44.848-9.649 87.379-24.679 126.758-12.623 32.841-32.721 63.032-58.128 87.805-25.007 25.511-55.262 45.675-89.041 58.77-38.531 14.674-81.088 23.339-125.518 24.47-55.061 2.143-72.512 2.997-211.562 2.997v0zM512 647.253c-0.038 0-0.083 0-0.128 0-145.273 0-263.040-117.767-263.040-263.040s117.767-263.040 263.040-263.040c145.273 0 263.040 117.767 263.040 263.040 0 0.075 0 0.15 0 0.225-0.049 145.154-117.74 262.815-262.912 262.815zM512 213.76c-94.257 0-170.667 76.41-170.667 170.667s76.41 170.667 170.667 170.667c94.257 0 170.667-76.41 170.667-170.667s-76.41-170.667-170.667-170.667zM846.72 657.493c0-33.932-27.508-61.44-61.44-61.44s-61.44 27.508-61.44 61.44c0 33.932 27.508 61.44 61.44 61.44 33.903-0.073 61.367-27.537 61.44-61.433z" />
<glyph unicode="&#xe906;" glyph-name="arrow-down" data-tags="arrow-down" horiz-adv-x="982" d="M944 440l-432-489.984v923.968c0.017 0.319 0.026 0.694 0.026 1.070 0 5.794-2.278 11.055-5.986 14.939-3.889 3.708-9.177 5.995-15 5.995s-11.111-2.287-15.017-6.012c-3.729-3.874-6.031-9.161-6.031-14.986 0-0.354 0.008-0.706 0.025-1.056l-0.002-923.919-432 489.984c-3.41 5.166-9.189 8.527-15.754 8.527-5.691 0-10.792-2.526-14.242-6.519-5.209-3.416-8.59-9.199-8.59-15.771 0-5.702 2.545-10.809 6.56-14.248l470.041-532.053v-1.984l6.016-1.984v-1.984l9.984-1.984 8 1.984 1.984 1.984 4.032 1.984 1.984 1.984 468.032 531.968c3.261 3.716 5.25 8.618 5.25 13.984 0 11.736-9.514 21.25-21.25 21.25-6.37 0-12.085-2.802-15.979-7.242l-0.021-0.024z" />
<glyph unicode="&#xe907;" glyph-name="deliver" data-tags="deliver" horiz-adv-x="1082" d="M166.104 238.717c10.123 0 15.184-7.132 15.184-21.626 0.006-0.188 0.010-0.409 0.010-0.631 0-6.82-3.335-12.862-8.463-16.583-5.296-4.061-11.942-6.483-19.154-6.483-0.081 0-0.162 0-0.243 0.001h-138.024c-10.123 0-15.184 7.822-15.184 23.006 0.217 6.392 3.622 11.943 8.666 15.139 5.313 4.065 11.959 6.488 19.171 6.488 0.081 0 0.162 0 0.243-0.001h138.024zM144.478 148.073c4.624-0.080 8.635-2.628 10.78-6.38 1.852-3.28 2.924-7.128 2.924-11.227 0-2.167-0.3-4.264-0.859-6.251 0.045-0.026 0.049-0.247 0.049-0.469 0-6.82-3.335-12.862-8.463-16.583-5.296-4.061-11.942-6.483-19.154-6.483-0.081 0-0.162 0-0.243 0.001h-69.006c-8.512 0-12.883 7.822-12.883 23.006-0.003 0.14-0.005 0.305-0.005 0.471 0 6.918 3.431 13.034 8.683 16.741 5.301 4.063 11.947 6.486 19.159 6.486 0.081 0 0.162 0 0.243-0.001h69.006zM116.411 56.049c0.433 0.034 0.938 0.053 1.448 0.053 5.803 0 11.023-2.499 14.642-6.479 1.586-2.459 2.52-5.442 2.52-8.643s-0.934-6.184-2.544-8.691c-0.125-6.289-3.444-11.832-8.403-15.076-5.308-4.064-11.954-6.486-19.166-6.486-0.081 0-0.162 0-0.243 0.001h-21.613c-0.447-0.039-0.967-0.061-1.493-0.061-10.038 0-18.175 8.137-18.175 18.175 0 1.243 0.125 2.456 0.362 3.629-0.023 0.023-0.025 0.188-0.025 0.354 0 6.918 3.431 13.034 8.683 16.741 5.301 4.063 11.947 6.486 19.159 6.486 0.081 0 0.162 0 0.243-0.001h22.994zM534.431 405.971c-50.256-48.249-118.629-77.96-193.941-77.96-154.758 0-280.214 125.456-280.214 280.214s125.456 280.214 280.214 280.214c154.758 0 280.214-125.456 280.214-280.214 0-0.011 0-0.022 0-0.032 0.007-0.718 0.011-1.57 0.011-2.422 0-78.896-33.095-150.062-86.16-200.374zM504.753 779.589c-43.756 43.349-103.987 70.134-170.475 70.134-133.793 0-242.254-108.461-242.254-242.254s108.461-242.254 242.254-242.254c133.793 0 242.254 108.461 242.254 242.254 0 0.012 0 0.024 0 0.037 0.013 0.903 0.020 1.972 0.020 3.042 0 66.342-27.503 126.261-71.73 168.975zM1079.905 137.26c1.965-1.485 3.221-3.816 3.221-6.442s-1.256-4.957-3.201-6.427l-36.6-138.051c0.006-0.188 0.010-0.409 0.010-0.631 0-6.82-3.335-12.862-8.463-16.583-5.296-4.061-11.942-6.483-19.154-6.483-0.081 0-0.162 0-0.243 0.001h-92.012c-8.121-26.005-23.555-47.762-43.88-63.509-19.297-16.611-44.119-26.73-71.295-27.133-1.115-0.056-2.321-0.087-3.534-0.087-22.236 0-42.015 10.515-54.638 26.844-8.555 11.475-13.626 25.731-13.626 41.172 0 8.138 1.408 15.947 3.995 23.196l-276.223-0.482c-8.121-26.005-23.555-47.762-43.88-63.509-19.297-16.611-44.119-26.73-71.295-27.133-1.115-0.056-2.321-0.087-3.534-0.087-22.236 0-42.015 10.515-54.638 26.844-9.324 12.184-14.869 27.435-14.869 43.981 0 7.090 1.018 13.942 2.916 20.417l-90.773-0.512q-21.626 0-15.184 23.006l92.024 345.091h46.012l-86.273-322.085h73.389c21.429 27.799 54.605 45.635 91.963 46.012 1.229 0.071 2.595 0.111 3.969 0.111 29.912 0 55.38-19.029 64.959-45.642l220.089-0.481 109.969 414.109h-228.68l12.883 46.012h253.067c0.549 0.059 1.185 0.092 1.83 0.092 10.038 0 18.175-8.137 18.175-18.175 0-1.753-0.248-3.448-0.711-5.052l-32.407-114.902h184.049c7.536-0.75 14.212-3.941 19.343-8.759zM357.284-82.678c0.439-0.012 0.956-0.019 1.474-0.019 27.789 0 51.011 19.551 56.662 45.649 3.020 5.32 4.765 11.275 4.765 17.637s-1.745 12.316-4.782 17.411c-6.668 7.836-16.699 12.876-27.906 12.876-1.16 0-2.308-0.054-3.441-0.16-14.104-0.218-27.187-5.022-37.749-12.991-11.292-7.534-19.055-19.942-20.299-34.218-1.875-4.356-2.96-9.237-2.96-14.371 0-6.732 1.866-13.029 5.108-18.401 6.098-8.121 15.876-13.425 26.893-13.425 0.301 0 0.601 0.004 0.899 0.012zM922.313 9.346h81.902l23.006 90.644h-276.073l-23.006-90.644h38.88c20.66 28.030 53.547 46.012 90.633 46.012 0.004 0 0.007 0 0.011 0 1.078 0.067 2.339 0.105 3.609 0.105 28.321 0 52.199-19.024 59.552-44.991zM974.077 285.419h-170.475l-36.58-138.036h255.367zM816.715-82.678c0.847-0.043 1.839-0.068 2.837-0.068 28.029 0 51.503 19.504 57.59 45.681 1.853 4.593 2.885 9.47 2.885 14.587 0 7.557-2.249 14.588-6.114 20.461-6.204 7.791-15.841 12.833-26.656 12.833-0.871 0-1.735-0.033-2.589-0.097-0.466 0.027-1.147 0.039-1.831 0.039-28.602 0-52.497-20.153-58.261-47.033-1.933-4.574-3.018-9.455-3.018-14.589 0-6.732 1.866-13.029 5.108-18.401 6.097-8.141 15.887-13.459 26.918-13.459 0.615 0 1.227 0.017 1.834 0.049z" />
<glyph unicode="&#xe908;" glyph-name="cup" data-tags="cup" horiz-adv-x="1010" d="M987.421 839.897h-134.648v33.662c0 12.394-10.047 22.441-22.441 22.441h-650.8c-12.394 0-22.441-10.047-22.441-22.441v-33.662h-134.648c-12.394 0-22.441-10.047-22.441-22.441v-110.187c1.754-87.743 72.992-158.274 160.846-158.885 23.585-162.498 155.286-287.982 318.784-301.749l1.289-227.419h-145.869c-12.394 0-22.441-10.047-22.441-22.441s10.047-22.441 22.441-22.441h336.621c12.394 0 22.441 10.047 22.441 22.441s-10.047 22.441-22.441 22.441h-145.869v227.107c165.736 12.865 298.517 138.81 321.81 300.17 0.365 1.891 0.532 1.89 0.699 1.89 88.459 0 160.362 70.889 161.998 158.957l0.002 110.341c-0.124 12.299-10.124 22.221-22.44 22.221-0.158 0-0.316-0.002-0.473-0.005zM44.883 707.268v87.746h112.207v-191.874c0-3.366 0-6.508 0-9.874-61.621 2.547-110.789 52.42-112.204 114.091zM807.89 603.14c0.069-2.406 0.108-5.238 0.108-8.079 0-167.379-135.687-303.066-303.066-303.066-164.538 0-298.451 131.121-302.95 294.572l-0.009 230.889c0.052 0.571 0.081 1.236 0.081 1.908s-0.029 1.336-0.087 1.993l0.006 29.762h605.917v-246.855zM964.979 707.268c-1.538-61.711-50.662-111.461-111.974-113.995l-0.233 201.965h112.207v-87.746zM750.215-82.893h-493.71c-12.394 0-22.441-10.047-22.441-22.441s10.047-22.441 22.441-22.441h493.71c12.394 0 22.441 10.047 22.441 22.441s-10.047 22.441-22.441 22.441z" />
<glyph unicode="&#xe909;" glyph-name="waranty" data-tags="waranty" horiz-adv-x="1018" d="M1013.973 32c2.572-2.799 4.149-6.549 4.149-10.667s-1.577-7.867-4.159-10.678c-3.886-5.628-10.315-9.276-17.597-9.276-1.317 0-2.606 0.119-3.857 0.348l-145.789 23.874-52.053-139.947c-2.777-7.658-9.605-13.2-17.827-14.072l-2.013-0.008c-0.236-0.010-0.514-0.016-0.792-0.016-7.319 0-13.702 4.006-17.077 9.946l-130.397 219.83c-34.077-10.156-73.233-16-113.754-16-0.058 0-0.117 0-0.175 0-0.332-0.001-0.736-0.002-1.14-0.002-42.381 0-83.232 6.553-121.594 18.7l-129.204-222.859c-3.425-6.036-9.808-10.043-17.128-10.043-0.279 0-0.556 0.006-0.832 0.017l-1.881-0.001c-8.315 0.88-15.143 6.422-17.873 13.932l-49.967 140.095-148.053-24.107c-1.662-0.63-3.583-0.994-5.59-0.994-6.282 0-11.729 3.572-14.421 8.796-2.688 3.38-4.289 7.608-4.289 12.209 0 3.376 0.862 6.551 2.377 9.316l153.976 265.926c-30.623 55.661-48.64 121.988-48.64 192.522 0 223.859 181.474 405.333 405.333 405.333s405.333-181.474 405.333-405.333c0-0.184 0-0.367 0-0.551 0.002-0.463 0.004-1.045 0.004-1.627 0-72.452-20.065-140.218-54.942-198.043zM247.893-58.027l104.107 176c-69.775 30.682-127.45 77.878-169.834 136.809l-120.726-204.863 120.107 20.053c1.934 0.757 4.172 1.195 6.514 1.195 8.277 0 15.274-5.481 17.559-13.012zM256 746.88c-65.895-65.674-106.667-156.519-106.667-256.887 0-200.295 162.371-362.667 362.667-362.667s362.667 162.371 362.667 362.667c0 100.368-40.772 191.214-106.657 256.878-65.24 65.971-155.747 106.819-255.795 106.819-99.942 0-190.364-40.762-255.546-106.568zM836.053 69.973l117.973-20.053-116.053 202.027c-43.719-59.568-101.82-106.158-169.288-135.093l101.448-175.094 42.667 116.053c2.279 7.723 9.307 13.263 17.628 13.263 2.248 0 4.402-0.404 6.392-1.144z" />
<glyph unicode="&#xe90a;" glyph-name="wedding4" data-tags="wedding4" horiz-adv-x="1050" d="M156.038 53.638h-30.476c-33.524 0-60.343 26.819-60.343 60.343v110.324c0 6.095 4.876 11.581 11.581 11.581 6.095 0 11.581-4.876 11.581-11.581v0-110.324c0-20.724 16.457-37.181 37.181-37.181v0h30.476c20.724 0 37.181 16.457 37.181 37.181v0 48.762c0 6.095 4.876 11.581 11.581 11.581 6.095 0 11.581-4.876 11.581-11.581v0-48.762c0-32.914-26.819-60.343-60.343-60.343zM926.476 53.638h-30.476c-33.524 0-60.343 26.819-60.343 60.343v48.762c0 6.095 4.876 11.581 11.581 11.581 6.095 0 11.581-4.876 11.581-11.581v0-48.762c0-20.724 16.457-37.181 37.181-37.181v0h30.476c20.724 0 37.181 16.457 37.181 37.181v0 110.324c0 6.095 4.876 11.581 11.581 11.581 6.095 0 11.581-4.876 11.581-11.581v0-110.324c0-32.914-26.819-60.343-60.343-60.343zM92.038 533.943v0c-38.4 0-85.333 4.267-91.429 23.771-3.048 11.581 0 23.771 7.924 32.914 22.552 29.257 84.114 55.467 117.029 55.467 6.095 0 12.8-1.219 18.286-3.657 7.314-3.657 7.924-12.19 8.533-21.333 0-0.61 1.829-70.095-16.457-81.676-1.829-1.219-8.533-5.486-43.886-5.486zM23.162 565.638c6.705-3.657 32.305-9.143 69.486-9.143 10.362 0 20.114 0.61 30.476 1.829 4.876 10.362 7.924 49.371 6.705 64-1.219 0-2.438 0-3.657 0-26.21 0-80.457-23.162-98.133-46.324-3.048-2.438-4.876-6.095-4.876-10.362zM526.019 147.505c-94.476 0-404.114 1.219-429.714 20.114-34.133 24.99-55.467 153.6-38.4 194.438 32.914 79.238 94.476 149.943 105.448 162.743 20.114 62.781 68.876 204.8 97.524 218.21 26.21 12.19 136.533 26.21 246.248 26.21h41.448c113.981 0 220.038-12.8 244.419-24.381 28.648-14.019 76.8-156.648 96.914-220.038 10.971-12.8 72.533-84.114 105.448-162.743 17.067-40.838-4.267-169.448-38.4-194.438-27.429-18.895-336.457-20.114-430.933-20.114zM109.714 186.514c16.457-7.924 167.619-15.848 416.305-15.848s399.848 7.924 416.305 15.848c23.162 17.676 44.495 133.486 30.476 166.4-34.133 81.676-102.4 157.257-103.010 157.867-1.219 1.219-1.829 2.438-2.438 4.267-29.257 93.257-70.705 199.924-85.943 208.457-18.895 9.143-119.467 21.943-234.057 21.943h-41.448c-120.076 0-218.819-15.848-235.886-23.771-14.629-8.533-56.076-113.981-85.943-206.629-0.61-1.829-1.219-3.048-2.438-4.267-0.61-0.61-68.876-76.19-103.010-157.867-13.41-32.914 7.924-148.724 31.086-166.4zM526.019 311.467c-154.21-0.61-307.81 9.752-460.8 29.867-6.095 0.61-10.971 6.705-9.752 12.8s6.705 10.971 12.8 9.752c303.543-39.619 611.352-39.619 914.895 0 6.095 0.61 12.19-3.657 12.8-9.752s-3.657-12.19-9.752-12.8c-152.381-20.114-305.981-29.867-460.19-29.867zM519.314 198.095c-160.914 0-266.362 4.876-299.276 9.752-4.267 0.61-7.314 3.048-9.143 7.314-6.705 20.114-11.581 40.838-13.41 62.171-0.61 3.657 0.61 6.705 3.048 9.143s6.095 3.657 9.143 3.657c95.695-8.533 188.952-10.362 309.029-10.362 98.133 0 202.971 0.61 309.029 10.362 3.657 0 6.705-1.219 9.143-3.657s3.657-6.095 3.048-9.143c-1.829-21.333-6.705-42.057-13.41-62.171-1.829-3.657-4.876-6.705-9.143-7.314-32.305-4.876-137.752-9.752-298.057-9.752zM230.4 229.79c37.79-4.267 140.19-8.533 288.914-8.533s251.124 4.267 288.914 8.533c3.657 11.581 6.095 23.771 7.924 35.352-102.4-8.533-202.362-9.143-296.838-9.143-114.59 0-205.41 1.829-296.838 9.143 1.829-11.581 4.267-23.771 7.924-35.352zM755.81 353.524c-6.705-0.61-13.41 0-19.505 2.438-7.314 3.048-12.8 9.752-14.019 17.676-0.61 7.314 2.438 14.629 8.533 18.895 35.352 28.038 117.638 70.095 151.771 70.095 2.438 0 4.876 0 6.705-0.61 11.581-3.048 20.724-12.8 21.943-24.99 3.657-20.724-6.705-53.638-24.99-65.219-20.114-12.19-101.181-18.286-130.438-18.286zM747.886 376.686c1.829 0 4.267 0 7.924 0 37.79 0 106.057 7.924 117.638 15.238 7.924 4.876 17.067 26.819 14.019 41.448 0 2.438-1.219 4.876-3.657 6.705-0.61 0-1.219 0-1.829 0-23.162-0.61-95.086-34.743-134.095-63.39zM295.619 353.524v0c-29.257 0-110.324 6.705-129.829 18.286-18.286 11.581-28.648 44.495-24.99 65.219 1.219 12.19 9.752 22.552 21.943 24.99 2.438 0.61 4.267 0.61 6.705 0.61 33.524 0 115.81-42.667 151.771-70.095 6.095-4.267 9.143-11.581 8.533-18.895-1.219-7.924-6.705-14.629-14.019-17.676-6.705-2.438-13.41-3.048-20.114-2.438zM169.448 439.467c-0.61 0-1.219 0-1.829 0-2.438-1.219-3.657-3.657-3.657-6.705-2.438-14.629 6.095-36.571 14.019-41.448 11.581-7.314 79.848-15.238 117.638-15.238 3.657 0 6.095 0 7.924 0-38.4 29.257-110.933 63.39-134.095 63.39zM811.886 565.029h-571.733c-6.095 0-11.581 4.876-11.581 11.581 0 1.219 0 2.438 0.61 3.657 10.971 34.133 39.619 113.371 65.219 121.295 20.724 6.705 132.267 14.629 232.229 13.41h20.724c91.429 0 192.61-5.486 212.114-11.581 24.381-7.924 50.59-80.457 64-123.733 1.829-6.095-1.829-12.8-7.924-14.629-1.219 0-2.438 0-3.657 0zM256 588.19h540.038c-15.848 48.152-35.352 88.99-43.886 93.257-13.41 4.267-105.448 10.971-204.8 10.971h-37.79c-93.257 0-192.61-7.314-208.457-12.19-9.143-4.876-28.648-45.105-45.105-92.038zM166.4 503.467h-1.829c-6.095 1.219-10.362 6.705-9.752 13.41 2.438 21.333-4.876 43.276-20.114 58.514-5.486 3.657-6.705 10.971-3.048 15.848 3.657 5.486 10.971 6.705 15.848 3.048 22.552-20.114 34.133-50.59 29.867-80.457-0.61-6.095-5.486-10.362-10.971-10.362zM956.952 533.943c-35.352 0-42.057 4.267-43.886 5.486-18.286 12.19-16.457 81.067-16.457 81.676 0.61 9.143 1.219 17.676 8.533 21.333 5.486 2.438 12.19 3.657 18.286 3.657 32.914 0 94.476-26.21 116.419-55.467 7.924-9.143 10.971-21.333 7.924-32.914-5.486-19.505-52.419-23.771-90.819-23.771zM926.476 558.933c10.362-1.829 20.114-2.438 30.476-1.829 36.571 0 62.781 4.876 69.486 9.143 0 4.267-1.829 7.924-4.876 10.971-17.067 23.162-71.314 46.324-98.133 46.324-1.219 0-2.438 0-3.657 0-1.829-15.238 1.829-54.248 6.705-64.61v0zM880.152 505.905c-5.486 0-10.362 4.267-11.581 9.752-6.095 41.448 21.943 71.314 32.305 78.629 5.486 3.048 12.8 1.829 15.848-3.657 3.048-4.876 1.829-11.581-2.438-15.238-5.486-4.267-27.429-26.21-23.162-56.076 0.61-6.095-3.657-12.19-9.752-13.41h-1.219zM118.248 59.124c-6.095 0-11.581 4.876-11.581 11.581v0 93.867c0 6.095 4.876 11.581 11.581 11.581 6.095 0 11.581-4.876 11.581-11.581v-94.476c0-6.095-4.876-10.971-11.581-10.971 0 0 0 0 0 0zM159.695 59.124c-6.095 0-11.581 4.876-11.581 11.581v0 93.867c0 6.095 4.876 11.581 11.581 11.581 6.095 0 11.581-4.876 11.581-11.581v-94.476c0-6.095-5.486-10.971-11.581-10.971 0 0 0 0 0 0zM933.181 59.124c-6.095 0-11.581 4.876-11.581 11.581v0 93.867c0 6.095 4.876 11.581 11.581 11.581 6.095 0 11.581-4.876 11.581-11.581v-94.476c0-6.095-4.876-10.971-11.581-10.971 0 0 0 0 0 0zM892.343 59.124c-6.095 0-11.581 4.876-11.581 11.581v0 93.867c0 6.095 4.876 11.581 11.581 11.581 6.095 0 11.581-4.876 11.581-11.581v-94.476c0-6.095-4.876-10.971-11.581-10.971 0 0 0 0 0 0zM519.314 360.229l-6.705 3.048c-123.733 45.714-160.914 100.571-154.21 136.533 4.267 23.162 26.21 38.4 56.686 38.4 55.467 0 90.819-17.067 104.229-25.6 13.41 8.533 48.762 25.6 104.229 25.6 30.476 0 52.419-15.238 56.686-38.4 6.095-35.962-30.476-90.819-154.21-135.924l-6.705-3.657zM415.086 516.876c-19.505 0-33.524-7.924-35.962-20.724-3.657-21.333 21.333-68.267 140.19-112.152 118.248 43.886 143.848 90.819 140.19 112.152-2.438 12.8-15.848 21.333-35.962 21.333-64 0-97.524-24.99-97.524-24.99l-6.705-4.876-6.705 4.876c-0.61-0.61-33.524 24.381-97.524 24.381zM453.486-48.762l-7.924 9.143c24.99 20.724 41.448 49.981 46.933 81.676v0.61c6.705 21.943-12.19 87.771-20.114 111.543l11.581 3.657c3.048-9.143 29.867-88.381 20.724-118.857-6.095-33.524-24.381-65.219-51.2-87.771zM622.933-39.010c-6.095 1.829-12.19 3.657-17.676 6.095l7.924 19.505c4.876-1.829 9.752-3.657 14.629-4.876l-4.876-20.724zM558.933 1.219c-17.676 15.848-29.867 36.571-35.962 59.733-7.924 29.867-3.657 93.257-3.657 95.695l12.19-0.61c0-0.61-4.267-64 3.048-92.038 5.486-20.724 16.457-39.619 32.305-53.638l-7.924-9.143zM602.21 32.305l-12.19 2.438c1.829 7.924 1.219 16.457-1.829 24.381-1.829 4.267-4.267 7.314-7.924 10.971-6.095 6.705-13.41 15.238-17.676 35.352-4.267 17.067-4.267 35.352 0 53.029l11.581-3.048c-3.657-15.238-3.657-31.695 0-47.543 3.657-17.067 9.143-23.771 14.629-29.867 3.657-4.267 7.314-8.533 10.362-15.238 4.267-9.752 4.876-20.724 3.048-30.476zM711.314-81.067c-0.61 0-1.219 0-1.829 0-13.41 1.219-21.943 17.676-20.724 39.010 1.219 12.8 6.095 24.381 12.8 30.476 4.267 3.657 9.143 5.486 14.019 4.876 13.41-1.219 21.943-17.676 20.724-39.010-1.219-12.8-6.095-24.381-12.8-30.476-3.657-3.657-7.924-4.876-12.19-4.876zM714.971-25.6c-1.829-1.219-6.095-7.314-6.705-17.676s2.438-17.676 3.657-18.895c1.829 1.219 6.095 7.314 6.705 17.676s-2.438 17.067-3.657 18.895zM714.362-25.6v0c0 0 0 0 0 0v0zM709.486-81.067l-71.924 9.752c-4.876 0.61-8.533 2.438-12.19 6.095-6.095 6.705-9.752 18.895-9.143 31.695 0.61 20.724 10.971 35.962 24.381 35.962 0 0 0.61 0 0.61 0h0.61l74.971-9.752-2.438-18.286-73.752 9.752c-1.219-0.61-5.486-7.314-6.095-18.286-0.61-11.581 3.657-18.286 4.876-18.895l72.533-9.752-2.438-18.286zM390.095-128c-9.143 0-20.114 5.486-29.867 15.848-14.629 15.848-17.676 34.133-7.314 43.276 3.657 3.048 7.924 4.876 13.41 4.876 9.143-0.61 20.114-6.705 28.648-15.848 14.629-15.848 17.676-34.133 7.314-43.276v0c-3.657-3.048-7.924-4.876-12.19-4.876zM365.105-82.286c-0.61-2.438 1.219-9.752 8.533-17.676s14.019-10.362 16.457-10.362c0.61 2.438-1.219 9.752-8.533 17.676-7.314 8.533-14.019 10.362-16.457 10.362zM402.286-123.733l-11.581 14.019 57.295 48.152c0.61 1.219-1.829 9.143-9.752 17.067s-15.848 9.752-17.676 9.143l-56.076-46.933-11.581 14.019 55.467 46.324c9.752 9.143 28.038 4.876 42.667-9.752 15.238-15.238 18.895-33.524 9.752-42.667l-0.61-0.61-57.905-48.762zM579.048-88.381c-4.876 0-10.362 0.61-16.457 2.438-20.114 6.095-32.914 20.114-29.257 32.914 1.219 4.876 4.267 8.533 9.143 10.971 7.924 4.267 20.724 4.876 32.914 1.219 20.114-6.095 32.914-20.114 29.257-32.914v0c-2.438-9.143-12.8-14.629-25.6-14.629zM551.619-57.905c1.219-2.438 6.095-7.314 16.457-10.362 9.752-3.048 17.067-1.219 19.505 0-1.219 2.438-6.095 7.314-16.457 10.362s-17.676 1.219-19.505 0zM604.648-73.752l-17.067 6.095 24.381 70.705c-0.61 1.219-6.095 6.705-17.067 9.752-10.971 2.438-18.286 0-19.505-1.219l-23.771-69.486-17.067 6.095 23.162 68.876c1.829 6.705 7.924 12.19 17.067 14.019 7.314 1.829 15.848 1.829 24.381-0.61 8.533-1.829 16.457-6.095 21.943-10.971 7.314-6.095 10.362-14.019 8.533-20.724v-0.61l-24.99-71.924zM489.448 749.105c-40.229 0-73.143 32.914-73.143 73.143s32.914 73.143 73.143 73.143 73.143-32.914 73.143-73.143-32.914-73.143-73.143-73.143zM489.448 877.714c-30.476 0-54.857-24.99-54.857-54.857s24.99-54.857 54.857-54.857 54.857 24.99 54.857 54.857-24.381 54.857-54.857 54.857zM559.543 749.105c-40.229 0-73.143 32.914-73.143 73.143s32.914 73.143 73.143 73.143 73.143-32.914 73.143-73.143-32.914-73.143-73.143-73.143zM559.543 877.714c-30.476 0-54.857-24.99-54.857-54.857s24.99-54.857 54.857-54.857c30.476 0 54.857 24.99 54.857 54.857s-24.381 54.857-54.857 54.857z" />
<glyph unicode="&#xe90b;" glyph-name="wedding5" data-tags="wedding5" horiz-adv-x="746" d="M133.065-128.264c-74.828 0-132.206 24.392-132.933 46.272v1.983s0 0.727 0 1.058v586.201c0.009 48.915 31.492 90.475 75.3 105.53l7.792 2.614v158.647c0 6.918 5.608 12.526 12.526 12.526s12.526-5.608 12.526-12.526v-167.637c0-0.001 0-0.002 0-0.004 0-5.493-3.527-10.163-8.439-11.868l-15.622-5.249c-34.534-11.827-58.936-43.969-59.030-81.824v-585.22c7.337-6.61 43.562-25.053 108.012-25.053s100.344 17.914 108.012 24.789v585.275c-0.074 37.908-24.513 70.089-58.487 81.72l-16.143 5.403c-4.998 1.71-8.527 6.366-8.527 11.847 0 0.018 0 0.036 0 0.054v167.568c0 6.918 5.608 12.526 12.526 12.526s12.526-5.608 12.526-12.526v-158.647l7.007-2.38c44.62-15.268 76.131-56.834 76.151-105.762v-586.203s0-0.463 0-0.661v-2.71c-1.322-21.417-58.369-45.743-133.197-45.743zM133.065 370.945c-65.706 0-132.206 19.831-132.206 58.435s66.566 58.435 132.206 58.435 132.206-19.831 132.206-58.435-66.433-58.435-132.206-58.435zM133.065 462.762c-69.408 0-107.219-22.012-107.219-33.051s37.877-33.051 107.219-33.051 107.219 22.012 107.219 33.051-37.811 32.985-107.219 32.985zM214.768-73.267c-5.786 0.026-10.646 3.961-12.077 9.299-3.656 8.351-36.311 53.896-69.56 53.896s-59.955-38.075-69.672-54.469c-2.226-3.694-6.217-6.126-10.775-6.126-6.925 0-12.538 5.614-12.538 12.538 0 2.366 0.656 4.58 1.795 6.468 14.776 24.865 46.241 66.642 91.19 66.642 49.908 0 92.544-61.211 94.064-73.969 0.080-0.533 0.126-1.147 0.126-1.772 0-6.292-4.651-11.497-10.702-12.366zM130.818 105.475c-0.421-0.002-0.919-0.003-1.417-0.003-20.51 0-40.616 1.732-60.179 5.058-3.858 0.723-8.34 5.852-8.34 12.028 0 0.013 0 0.026 0 0.039v183.83c0 0.014 0 0.031 0 0.048 0 6.9 5.594 12.493 12.493 12.493 0.747 0 1.479-0.066 2.191-0.191 16.215-2.808 34.975-4.419 54.112-4.419 0.308 0 0.616 0 0.924 0.001 56.735 0 97.983 12.295 109.419 24.524 2.291 2.428 5.53 3.939 9.122 3.939 6.921 0 12.532-5.611 12.532-12.532 0-3.329-1.298-6.355-3.416-8.6-18.503-19.825-68.609-32.384-127.771-32.384-0.124 0-0.271 0-0.418 0-15.555 0-30.886 0.961-45.936 2.826l1.8-158.829c13.181-1.81 28.414-2.843 43.888-2.843 0.234 0 0.468 0 0.702 0.001 55.358 0 96.738 12.031 108.901 23.929 2.257 2.208 5.349 3.571 8.759 3.571 6.919 0 12.528-5.609 12.528-12.528 0-3.509-1.442-6.68-3.767-8.955-18.974-18.775-68.617-31.004-126.127-31.004zM133.065 760.687c-33.58 0-67.623 12.361-67.623 35.96 0 0.859 0.331 62.071 0.331 62.071h25.053s0-55.526-0.331-61.476c2.049-3.437 16.922-11.37 42.57-11.37s40.455 7.932 42.57 11.37c0 5.883-0.331 61.476-0.331 61.476h25.053s0.331-61.211 0.331-62.071c0-23.599-34.043-35.96-67.623-35.96zM133.065 824.080c-33.58 0-67.623 12.361-67.623 35.96s33.977 35.96 67.623 35.96 67.623-12.361 67.623-35.96-34.043-35.96-67.623-35.96zM90.561 860.040c3.041-3.636 17.716-10.907 42.174-10.907s39.133 7.271 42.174 10.907c-3.041 3.636-17.716 10.907-42.174 10.907s-38.802-7.271-42.174-10.907zM627.317 383.769c-66.764 0-117.068 26.441-117.068 61.542s50.304 61.542 117.068 61.542 117.068-26.441 117.068-61.542-50.304-61.542-117.068-61.542zM627.317 481.799c-57.047 0-92.015-21.219-92.015-36.489s35.035-36.489 92.015-36.489 92.015 21.285 92.015 36.489-34.968 36.489-92.015 36.489zM627.317 157.168c-0.415-0.007-0.904-0.011-1.394-0.011-25.318 0-48.14 10.686-64.202 27.793-58.479 60.597-53.455 203.313-51.802 250.18 0 4.627 0 8.065 0 10.18 0 6.918 5.608 12.526 12.526 12.526s12.526-5.608 12.526-12.526c0-2.247 0-6.015 0-11.039-4.164-118.985 10.907-196.788 44.752-231.889 12.041-12.48 28.913-20.229 47.594-20.229s35.553 7.75 47.575 20.21c33.864 35.12 48.935 113.122 44.771 231.909 0 5.024 0 8.792 0 11.039 0.037 0.337 0.058 0.728 0.058 1.124s-0.021 0.787-0.062 1.172c-0.166 0.727-0.264 1.617-0.264 2.53 0 6.92 5.61 12.53 12.53 12.53 6.007 0 11.027-4.227 12.247-9.87 0.516-2.326 0.804-4.904 0.808-7.549 0-2.118 0-5.555 0-10.183 1.653-46.933 6.61-189.649-51.759-250.133-16.102-17.119-38.9-27.78-64.189-27.78-0.603 0-1.205 0.006-1.805 0.018zM627.317-70.623h-0.397c-6.737 0.209-12.118 5.72-12.118 12.488 0 0.258 0.008 0.514 0.023 0.768 0.086 3.489 0.136 7.639 0.136 11.801 0 86.457-21.629 167.862-59.77 239.099 0.362-0.982-0.207 1.091-0.207 3.297 0 6.927 5.616 12.543 12.543 12.543 4.721 0 8.833-2.609 10.973-6.463 38.763-72.128 61.519-157.748 61.519-248.683 0-4.344-0.052-8.677-0.155-12.996 0.012 0.641 0.012 0.641 0.012 0.641 0-6.9-5.594-12.493-12.493-12.493-0.023 0-0.046 0-0.070 0zM627.317-70.623c-0.001 0-0.003 0-0.004 0-6.784 0-12.305 5.407-12.489 12.146-0.089 3.652-0.14 7.933-0.14 12.227 0 51.48 7.293 101.256 20.902 148.352 10.041 35.987 24.249 70.586 41.997 102.969 0.889 1.361 5.001 3.97 9.722 3.97 6.927 0 12.543-5.616 12.543-12.543 0-2.206-0.569-4.279-1.569-6.079-15.66-28.328-29.192-61.259-38.846-95.809-12.79-44.442-19.698-91.725-19.698-140.621 0-4.215 0.051-8.418 0.153-12.609 0.002 0.403 0.010 0.147 0.010-0.111 0-6.768-5.382-12.279-12.099-12.487h-0.482zM627.317-119.473c-48.123 0-84.413 21.219-84.413 49.313 0 21.153 19.434 38.274 47.33 41.711 0.456 0.059 0.984 0.093 1.52 0.093 6.915 0 12.52-5.605 12.52-12.52 0-6.379-4.77-11.643-10.938-12.421-15.926-1.923-25.379-10.054-25.379-16.796 0-9.915 23.136-24.26 59.493-24.26s59.493 14.344 59.493 24.26c0 5.487-7.668 12.626-22.343 15.732-5.725 1.235-9.952 6.255-9.952 12.262 0 6.92 5.61 12.53 12.53 12.53 0.913 0 1.803-0.098 2.661-0.283 25.565-5.405 42.157-21.204 42.157-40.242-0.066-28.226-36.555-49.379-84.678-49.379zM452.474 446.831c-66.764 0-117.068 26.441-117.068 61.542s50.304 61.542 117.068 61.542 117.068-26.441 117.068-61.542-50.304-61.542-117.068-61.542zM452.474 544.861c-57.047 0-92.015-21.285-92.015-36.489s35.035-36.489 92.015-36.489 92.015 21.219 92.015 36.489-34.968 36.29-92.015 36.29zM452.474 220.098c-0.415-0.007-0.904-0.011-1.394-0.011-25.318 0-48.14 10.686-64.202 27.793-58.479 60.597-53.455 203.313-51.802 250.18 0 4.627 0 8.065 0 10.18 0 6.918 5.608 12.526 12.526 12.526s12.526-5.608 12.526-12.526c0-2.247 0-6.015 0-11.039-4.164-118.985 10.907-196.788 44.752-231.889 11.529-12.235 27.841-19.853 45.932-19.853 0.584 0 1.167 0.008 1.747 0.024 27.942-0.002 49.227 14.739 64.828 45.014 2.129 4.061 6.316 6.784 11.138 6.784 6.923 0 12.535-5.612 12.535-12.535 0-2.101-0.517-4.081-1.43-5.82-19.996-39.13-49.346-58.829-87.157-58.829zM452.474-7.693h-0.397c-6.737 0.209-12.118 5.72-12.118 12.488 0 0.258 0.008 0.514 0.023 0.768 0.075 3.255 0.119 7.132 0.119 11.019 0 86.637-21.722 168.201-60.017 239.542 0.362-0.973-0.208 1.1-0.208 3.305 0 6.927 5.616 12.543 12.543 12.543 4.721 0 8.833-2.609 10.973-6.463 38.763-72.123 61.52-157.738 61.52-248.667 0-4.35-0.052-8.688-0.156-13.013-0.17-6.047-5.582-11.413-12.273-11.521zM452.474-7.693c-0.001 0-0.003 0-0.004 0-6.784 0-12.305 5.407-12.489 12.146-0.089 3.652-0.14 7.933-0.14 12.227 0 51.48 7.293 101.256 20.902 148.352 10.038 35.986 24.246 70.586 41.996 102.967 0.89 1.363 5.002 3.972 9.723 3.972 6.927 0 12.543-5.616 12.543-12.543 0-2.206-0.569-4.279-1.569-6.079-15.661-28.327-29.193-61.258-38.846-95.808-12.79-44.443-19.698-91.725-19.698-140.621 0-4.215 0.051-8.418 0.153-12.609 0.002 0.403 0.010 0.147 0.010-0.111 0-6.768-5.382-12.279-12.099-12.487h-0.416zM452.474-56.609c-48.123 0-84.413 21.219-84.413 49.313 0 21.153 19.434 38.274 47.33 41.711 0.456 0.059 0.984 0.093 1.52 0.093 6.915 0 12.52-5.605 12.52-12.52 0-6.379-4.77-11.643-10.938-12.421-15.926-1.923-25.379-10.054-25.379-16.796 0-9.915 23.136-24.26 59.493-24.26s59.493 14.344 59.493 24.26c0 5.487-7.668 12.626-22.343 15.732-5.725 1.235-9.952 6.255-9.952 12.262 0 6.92 5.61 12.53 12.53 12.53 0.913 0 1.803-0.098 2.661-0.283 25.565-5.405 42.157-21.204 42.157-40.242-0.264-28.16-36.753-49.379-84.678-49.379z" />
<glyph unicode="&#xe90c;" glyph-name="wedding6" data-tags="wedding6" horiz-adv-x="1396" d="M463.963 715.583c-36.574 24.229-76.139 1.917-99.678-25.456-35.117 13.878-79.206 15.948-100.598-18.939-26.683-43.552 13.495-85.186 38.338-100.905l92.010-66.478c2.491-1.821 5.614-2.914 8.993-2.914 0.019 0 0.038 0 0.058 0 0.492-0.057 1.065-0.089 1.646-0.089s1.154 0.032 1.718 0.095l0.391-0.006c1.246 0.232 2.351 0.577 3.396 1.035l-0.098-0.039c2.636 1.155 4.814 2.939 6.409 5.168 1.229 1.72 2.111 3.705 2.545 5.852l52.923 93.872c15.488 25.533 34.581 80.356-8.051 108.802zM397.562 538.693l-78.516 56.97c-0.46 0-47.079 30.67-29.367 59.577 2.986 4.915 7.349 8.735 12.552 10.974 22.106 9.422 55.843-6.603 59.6-8.443v0h0.537c1.981-1 4.317-1.585 6.79-1.585 6.003 0 11.201 3.449 13.718 8.474s0.040 0.702 0.040 0.932l1.84 2.224c3.374 4.217 34.121 40.945 61.877 22.543s-0.537-64.944-1.917-67.091zM662.706 223.25v0l-5.061-23.003-0.46-1.994c-0.465-2.002-0.732-4.3-0.732-6.661 0-12.605 7.604-23.434 18.476-28.15l0.198-0.077c1.511-0.653 3.304-1.233 5.16-1.648l1.434-0.039 490.416-108.649c2.012-0.47 4.323-0.74 6.697-0.74 14.482 0 26.619 10.037 29.836 23.534l108.921 491.851c0.47 2.012 0.74 4.323 0.74 6.697 0 14.482-10.037 26.619-23.534 29.836l-491.851 108.921c-2.012 0.47-4.323 0.74-6.697 0.74-14.482 0-26.619-10.037-29.836-23.534zM1287.61 574.347v0zM947.478 133.923c-0.482 0.56-0.776 1.294-0.776 2.097 0 0.263 0.031 0.518 0.091 0.762l5.439 24.514c1.561 1.097 3.346 2.144 5.214 3.044l1.073 0.1c1.035 0.059 2.004 0.223 2.934 0.483l78.879 20.909c6.618 1.797 11.406 7.751 11.406 14.823 0 3.459-1.145 6.65-3.077 9.215-6.604 9.381-10.893 20.886-11.768 33.334-0.608 4.731-0.948 9.958-0.948 15.264 0 8.073 0.787 15.962 2.289 23.595l9.611 43.011c2.224 10.121 10.275 18.709 24.459 26.3 8.923 5.357 19.69 8.526 31.197 8.526 4.346 0 8.587-0.452 12.678-1.312 14.844-3.418 27.652-12.104 36.359-23.984 9.937-13.133 13.617-24.328 11.394-34.372l-9.738-43.782c-3.365-13.569-8.476-25.505-15.186-36.347-5.515-10.015-13.851-18.548-23.919-24.444-5.147-2.809-8.375-7.862-8.375-13.67 0-4.733 2.144-8.965 5.515-11.778l65.735-54.689 1.303-0.997c0.895-0.817 1.639-1.781 2.197-2.857l0.027-0.057-5.674-25.456c-0.117-0.849-0.604-1.564-1.292-1.987l-224.211 49.295zM688.315 191.353h-0.537c-0.129 0.245-0.205 0.535-0.205 0.843s0.076 0.598 0.209 0.854l1.375 6.047 3.757 16.945c0.154 0.727 0.604 1.328 1.215 1.68 1.287 1.014 2.717 1.955 4.227 2.767l4.603 1.303 77.826 20.626c5.641 1.526 9.932 6.047 11.101 11.709 0.22 1.036 0.337 2.111 0.337 3.214 0 4.972-2.366 9.391-6.033 12.193-5.266 3.547-11.257 6.67-17.592 9.097-6.444 2.661-11.505 4.961-15.952 7.185 2.99 4.064 6.364 9.124 9.968 15.335 5.172 8.472 9.786 18.251 13.328 28.529 0.32 1.605 0.32 2.142 0.78 2.602s0.767 2.684 6.134 17.559q6.134 16.869 10.581 29.75c6.569 22.371 26.91 38.427 51.002 38.427 4.515 0 8.897-0.564 13.082-1.625 13.387-2.663 24.972-10.415 32.648-21.153 6.199-8.583 9.85-19.118 9.85-30.506 0-2.821-0.224-5.59-0.655-8.29-0.958-9.134-1.954-19.562-2.951-31.523-1.38-16.025-1.917-18.862-1.994-19.092s0-1.15 0-1.61c-0.632-5.321-0.992-11.484-0.992-17.732 0-11.394 1.199-22.509 3.478-33.224-5.246 1.040-10.69 1.040-16.594 1.040-2.249 0.22-4.862 0.345-7.504 0.345-4.579 0-9.070-0.377-13.443-1.1-5.245-1.237-9.688-5.603-11.080-11.177-0.284-1.166-0.434-2.382-0.434-3.634 0-4.738 2.148-8.973 5.524-11.786l65.736-54.613 1.303-0.997c0.526-0.765 1.037-1.644 1.481-2.562 0.216-0.531 0.31-1.005 0.31-1.501s-0.094-0.971-0.266-1.406l-5.128-22.977c-0.034-0.629-0.393-1.167-0.911-1.452l-0.009-0.388h-0.613l-226.806 50.222zM700.813 253.537l95.231 429.382 491.566-108.879-95.384-430.762-45.085 37.418c7.237 6.883 13.469 14.726 18.515 23.346 8.193 13.364 14.495 28.273 18.375 44.132l9.959 44.851c4.217 19.169-1.457 39.104-16.869 59.347-12.975 17.98-31.842 31.006-53.728 36.291-6.317 1.377-12.844 2.092-19.538 2.092-16.767 0-32.486-4.485-46.024-12.32-21.87-11.648-35.365-27.367-39.582-46.459l-9.738-43.782c-1.823-8.824-2.867-18.966-2.867-29.351 0-6.437 0.401-12.781 1.179-19.007 0.972-10.25 3.497-20.361 7.315-29.812l-59.3-14.607c-2.845-0.338-5.437-1.012-7.874-1.99-1.542-0.6-2.981-1.27-4.37-2.022-1.217 1.781-2.775 3.266-4.477 4.573l-2.985 2.583-30.67 25.303c0.13-0.002 0.283-0.003 0.436-0.003 9.067 0 17.168 4.13 22.527 10.612 1.704 2.466 2.698 5.456 2.698 8.679 0 1.769-0.3 3.468-0.851 5.050-3.839 11.274-6.074 24.385-6.074 38.018 0 4.965 0.296 9.861 0.873 14.672-0.057 1.259 0.94 5.706 2.32 21.272q1.534 17.635 2.914 30.67c0.546 3.557 0.857 7.66 0.857 11.836 0 18.079-5.842 34.793-15.741 48.358-15.888 21.427-41.364 35.314-70.083 35.314-15.349 0-29.772-3.967-42.299-10.931-18.098-10.307-31.936-27.311-38.123-47.648-2.99-8.711-6.44-18.449-10.504-29.567-5.291-14.492-6.517-18.479-7.054-20.549-3.047-8.827-6.647-16.424-10.961-23.542-3.27-5.712-7.049-11.103-11.261-16.117l-5.534-6.806c-2.129-2.612-3.419-5.982-3.419-9.653 0-0.869 0.072-1.722 0.211-2.552 2.298-8.749 8.417-15.823 16.44-19.389zM924.859 500.662l52.906-93.774c0.45-2.246 1.333-4.23 2.562-5.951 1.595-2.229 3.773-4.013 6.311-5.129l0.098-0.039c0.946-0.42 2.051-0.765 3.202-0.982l0.555-0.015c0.495-0.057 1.068-0.089 1.649-0.089s1.154 0.032 1.718 0.095c-0.053-0.006-0.034-0.006-0.015-0.006 3.379 0 6.502 1.093 9.037 2.944l91.967 66.447c24.766 15.795 64.944 57.353 38.338 100.905-21.392 34.887-65.481 32.817-100.598 18.939-23.616 27.296-63.181 49.686-99.678 25.456-43.168-28.6-24.076-83.346-8.051-108.802zM951.158 516.457c-1.303 2.147-29.597 48.766-1.917 67.091s58.503-18.325 61.877-22.543l1.84-2.224s0-0.613 0-0.843c2.558-5.113 7.756-8.563 13.759-8.563 2.473 0 4.81 0.586 6.879 1.625l0.449-0.040c3.757 1.84 37.494 17.865 59.423 8.511 5.379-2.307 9.742-6.126 12.66-10.921 17.78-29.027-28.839-59.39-29.299-59.697l-78.516-56.97zM560.114 23.664c3.331-5.181 8.037-9.22 13.604-11.654 1.705-0.75 3.496-1.355 5.349-1.797l620.673-137.446c2-0.476 4.3-0.755 6.663-0.767 14.589 0.024 26.783 10.221 29.872 23.871l159.217 718.884c0.47 2.012 0.74 4.323 0.74 6.697 0 14.482-10.037 26.619-23.534 29.836l-620.666 137.444c-2.012 0.47-4.323 0.74-6.697 0.74-14.482 0-26.619-10.037-29.836-23.534l-159.22-718.887c-0.532-2.137-0.837-4.591-0.837-7.117 0-6.030 1.74-11.653 4.745-16.395zM745.132 758.751l620.457-137.402-159.255-718.602-620.457 137.479zM628.355 385.572c-6.952-2.635-12.943-5.758-18.496-9.483-3.38-2.624-5.746-7.044-5.746-12.015 0-1.103 0.116-2.179 0.338-3.216 1.168-5.661 5.459-10.182 10.993-11.683l7.162-1.865 8.741 39.411zM606.656 275.389l-125.518-27.833h-0.613v0.383c-0.527 0.29-0.886 0.828-0.92 1.452l-5.137 23.007c-0.163 0.409-0.257 0.884-0.257 1.38s0.094 0.971 0.266 1.406c0.487 1.013 0.998 1.893 1.569 2.727l1.259 0.927 65.711 54.593c3.4 2.833 5.549 7.069 5.549 11.806 0 1.252-0.15 2.469-0.433 3.633-1.393 5.575-5.836 9.941-11.454 11.223-4.001 0.679-8.492 1.055-13.071 1.055-2.642 0-5.255-0.125-7.833-0.37-5.575 0.025-11.019 0.025-16.080 0.025 2.093 9.675 3.292 20.789 3.292 32.184 0 6.247-0.36 12.41-1.062 18.47 0.069-0.201 0.069 0.412 0.069 0.872s-0.613 3.067-1.994 19.092c-0.997 11.961-1.994 22.389-2.99 31.82-0.392 2.402-0.616 5.171-0.616 7.992 0 11.388 3.651 21.923 9.846 30.499 10.31 13.709 26.718 22.58 45.199 22.58 9.836 0 19.085-2.513 27.141-6.932 11.635-6.679 20.489-17.729 24.304-30.919q4.539-13.252 10.673-30.12c5.367-14.875 6.134-17.405 6.134-17.559s0-1.073 0.46-1.534c3.863-11.346 8.477-21.125 14.029-30.272l1.306-2.085 11.118 50.146c-0.997 2.914-2.377 6.671-4.217 11.731-4.064 11.041-7.668 20.856-10.351 28.983-6.34 20.921-20.178 37.925-38.314 48.246-12.489 6.95-26.912 10.917-42.261 10.917-28.719 0-54.195-13.887-70.079-35.312-9.904-13.567-15.746-30.281-15.746-48.36 0-4.176 0.312-8.279 0.913-12.287q1.324-12.89 2.858-30.219c1.38-15.335 1.994-20.012 2.377-21.852 0.52-4.229 0.816-9.125 0.816-14.091 0-13.633-2.235-26.744-6.358-38.986-0.267-0.613-0.567-2.312-0.567-4.081 0-3.223 0.994-6.213 2.692-8.681 5.364-6.479 13.466-10.609 22.533-10.609 0.153 0 0.307 0.001 0.46 0.004l-30.693-25.303-2.914-2.53c-1.773-1.36-3.331-2.845-4.718-4.48-1.219 0.607-2.658 1.277-4.142 1.859-2.495 0.996-5.087 1.67-7.786 1.994l-59.186 15.349c3.558 8.722 6.083 18.834 7.097 29.387 0.737 5.923 1.138 12.267 1.138 18.704 0 10.385-1.044 20.527-3.032 30.325l-8.883 42.961c-4.217 19.092-17.712 34.811-40.025 46.695-13.095 7.599-28.814 12.084-45.581 12.084-6.694 0-13.221-0.715-19.508-2.072-21.916-5.305-40.782-18.331-53.569-36.038-15.523-20.516-21.274-40.528-17.056-59.62l9.738-43.782c4.1-16.929 10.403-31.838 18.713-45.382 4.929-8.441 11.16-16.283 18.353-23.124l-45.194-37.383-95.384 430.762 491.566 108.879 60.19-271.584 15.335 70.925-46.005 207.024c-3.258 13.706-15.396 23.743-29.878 23.743-2.374 0-4.684-0.27-6.903-0.78l-490.823-108.302c-13.706-3.258-23.743-15.396-23.743-29.878 0-2.374 0.27-4.684 0.78-6.903l108.839-491.436c3.258-13.706 15.396-23.743 29.878-23.743 2.374 0 4.684 0.27 6.903 0.78l374.506 82.846zM108.649 680.849v0zM448.781 240.425l-3.067-0.69-224.199-49.302c-0.699 0.43-1.187 1.145-1.302 1.979l-5.676 25.471c0.584 1.133 1.328 2.097 2.216 2.906l1.311 1.004 65.711 54.67c3.395 2.833 5.539 7.065 5.539 11.798 0 5.808-3.229 10.862-7.989 13.464-10.454 6.102-18.79 14.635-24.447 24.856-6.568 10.635-11.679 22.572-14.86 35.273l-9.462 44.573c-2.224 10.044 1.457 21.239 11.271 34.197 8.637 12.331 21.346 21.297 36.145 24.982 4.121 0.88 8.361 1.332 12.708 1.332 11.507 0 22.274-3.168 31.476-8.68 13.983-7.513 21.957-16.024 24.181-26.145l9.738-43.782c1.375-6.863 2.163-14.752 2.163-22.825 0-5.306-0.34-10.533-1-15.659-0.823-12.052-5.112-23.557-11.886-33.189-1.762-2.314-2.907-5.505-2.907-8.964 0-7.072 4.788-13.026 11.299-14.798l79.083-20.957c0.833-0.237 1.802-0.401 2.8-0.458l0.88-0.002c2.098-1 3.883-2.047 5.568-3.226l-0.124 0.082 5.444-24.536c0.147-0.355 0.232-0.767 0.232-1.199 0-0.839-0.321-1.604-0.847-2.177zM566.171 92.595l-376.323-83.346-159.178 718.679 620.457 137.402 43.092-194.602 15.335 70.925-28.907 130.348c-3.258 13.706-15.396 23.743-29.878 23.743-2.374 0-4.684-0.27-6.903-0.78l-620.251-137.362c-13.706-3.258-23.743-15.396-23.743-29.878 0-2.374 0.27-4.684 0.78-6.903l159.138-718.472c3.258-13.706 15.396-23.743 29.878-23.743 2.374 0 4.684 0.27 6.903 0.78l362.162 80.239z" />
<glyph unicode="&#xe90d;" glyph-name="wedding7" data-tags="wedding7" horiz-adv-x="1257" d="M622.294-22.748c-208.542 0-377.599 169.057-377.599 377.599s169.057 377.599 377.599 377.599c208.542 0 377.599-169.057 377.599-377.599-0.313-208.416-169.183-377.286-377.569-377.599zM622.294 702.592c-192.052 0-347.741-155.689-347.741-347.741s155.689-347.741 347.741-347.741c192.052 0 347.741 155.689 347.741 347.741-0.224 191.962-155.779 347.517-347.719 347.741zM622.294 41.222c-0.023 0-0.051 0-0.079 0-173.212 0-313.629 140.416-313.629 313.629s140.416 313.629 313.629 313.629c173.212 0 313.629-140.416 313.629-313.629-0.179-173.113-140.444-313.405-313.529-313.629zM622.294 638.543c-156.635 0-283.613-126.978-283.613-283.613s126.978-283.613 283.613-283.613c156.635 0 283.613 126.978 283.613 283.613-0.269 156.527-127.086 283.344-283.587 283.613zM622.294 148.207c-0.023 0-0.051 0-0.079 0-114.126 0-206.643 92.517-206.643 206.643s92.517 206.643 206.643 206.643c114.126 0 206.643-92.517 206.643-206.643-0.134-114.044-92.527-206.464-206.548-206.643zM622.294 531.636c-0.023 0-0.051 0-0.079 0-97.636 0-176.785-79.149-176.785-176.785s79.149-176.785 176.785-176.785c97.636 0 176.785 79.149 176.785 176.785-0.134 97.538-79.168 176.572-176.694 176.707zM113.76-128.079c-47.269 0-78.781 40.651-78.781 101.234 0 17.726 4.806 57.195 10.872 107.064 13.629 112.421 39.391 321.743 10.557 356.564-24.422 29.779-61.371 74.685-56.092 147.479 4.175 58.456 15.756 173.319 15.756 174.107 1.291 7.062 7.397 12.345 14.737 12.345 8.267 0 14.968-6.702 14.968-14.968 0-0.13-0.002-0.26-0.005-0.389 0-1.163-11.659-115.159-15.756-173.3-4.018-56.25 21.035-91.859 49.396-126.050 33.876-41.281 18.277-196.087-3.939-379.096-5.672-47.269-10.635-87.526-10.635-103.44 0-43.33 19.065-71.376 48.687-71.376s48.608 28.046 48.608 71.376c0 15.756-4.884 56.486-10.635 103.44-22.216 183.009-37.815 337.814-3.939 379.096 27.889 33.955 53.099 72.715 49.396 126.050-4.097 58.928-15.756 173.319-15.756 174.186-0.061 0.508-0.097 1.097-0.097 1.694 0 8.233 6.674 14.907 14.907 14.907 7.636 0 13.932-5.742 14.804-13.143 0.007-0.779 11.903-115.721 15.763-175.595 5.121-72.952-36.239-123.293-56.092-147.479-28.519-34.743-3.151-244.222 10.478-356.564 6.066-49.869 10.793-89.259 10.793-106.985 0.473-60.425-31.119-101.155-77.994-101.155zM1131.773-126.976c-47.269 0-84.532 44.748-84.532 101.864 0 9.611 2.915 41.597 7.878 94.538 5.909 64.522 14.811 162.053 23.083 272.268 2.363 245.089 0 536.265 0 539.18 0 0.030 0 0.066 0 0.102 0 4.147 1.687 7.901 4.411 10.612 2.621 2.68 6.272 4.342 10.312 4.342 0.169 0 0.338-0.003 0.506-0.009 89.077-1.733 164.786-258.323 163.289-412.498-1.261-131.88-52.153-158.429-86.659-161.187 5.357-83.036 20.247-171.98 31.513-237.92 8.351-49.711 14.89-88.944 14.89-109.585-0.236-56.959-37.342-101.707-84.69-101.707zM1108.138 861.1c0.473-70.273 1.812-311.895 0-519.957 0 0 0-0.63 0-0.945-8.272-110.294-17.253-208.534-23.162-273.214-4.412-48.529-7.878-83.666-7.878-91.938 0-40.336 23.634-72.006 54.674-72.006s54.595 31.513 54.595 72.006c0 18.12-6.696 58.219-14.496 104.622-11.896 70.903-28.204 168.198-32.615 257.379-0.017 0.267-0.027 0.578-0.027 0.892 0 8.267 6.702 14.968 14.968 14.968 0.62 0 1.232-0.038 1.832-0.111 2.26-0.294 4.958-0.466 7.696-0.466 0.039 0 0.078 0 0.116 0 53.959 0 63.019 82.642 63.019 131.88 1.261 145.509-63.419 343.093-118.802 376.89zM100.21 574.572h-15.756c-8.223 0-14.89 6.666-14.89 14.89v167.962c0 8.245 6.684 14.929 14.929 14.929s14.929-6.684 14.929-14.929v-152.836h0.63c0.023 0 0.051 0 0.079 0 8.289 0 15.008-6.719 15.008-15.008 0-8.261-6.674-14.963-14.925-15.008zM155.672 574.572h-15.756c-8.223 0-14.89 6.666-14.89 14.89v167.962c0 8.245 6.684 14.929 14.929 14.929s14.929-6.684 14.929-14.929v-152.836h0.63c0.023 0 0.051 0 0.079 0 8.289 0 15.008-6.719 15.008-15.008 0-8.261-6.674-14.963-14.925-15.008z" />
</font>
</defs>
</svg>
