<svg xmlns="http://www.w3.org/2000/svg" width="18" height="20" viewBox="0 0 18 20"><g><g><path fill="#fc567e" d="M.166 17.545a.564.564 0 0 1-.143-.558l1.12-3.996a.524.524 0 0 1 .062-.14c.025-.04.052-.08.082-.117L13.671.168A.534.534 0 0 1 14.066 0c.154 0 .286.056.395.168l2.813 2.857c.11.111.165.245.165.402 0 .156-.055.29-.165.4L4.902 16.407c-.037.03-.075.058-.115.084a.508.508 0 0 1-.138.061L.715 17.69a.562.562 0 0 1-.154.023.611.611 0 0 1-.213-.04.45.45 0 0 1-.182-.128zM.562 20a.536.536 0 0 1-.396-.168A.553.553 0 0 1 0 19.43c0-.156.055-.29.165-.401a.535.535 0 0 1 .396-.167h16.877c.154 0 .286.055.396.167.11.112.165.245.165.401 0 .157-.055.291-.165.402a.536.536 0 0 1-.396.168zm.824-3.684L4.21 15.5 16.077 3.428l-2.011-2.044L2.187 13.445z"/></g></g></svg>