<svg xmlns="http://www.w3.org/2000/svg" width="13" height="13" viewBox="0 0 13 13"><g><g><path fill="none" stroke="#fc567e" stroke-linecap="round" stroke-linejoin="round" stroke-miterlimit="50" stroke-width=".67" d="M11.886 9.387c-.07-.125-.18-.27-.324-.429a4.78 4.78 0 0 0-.38-.372c-.143-.127-.3-.258-.469-.39l-.289-.213a8.158 8.158 0 0 0-.471-.318 4.907 4.907 0 0 0-.53-.29 1.165 1.165 0 0 0-.482-.132c-.228 0-.427.107-.593.317a6.62 6.62 0 0 0-.455.66l-.178.281c-.056.09-.113.17-.167.237a.767.767 0 0 1-.12.129l-.026.016a4.816 4.816 0 0 1-.947-.545 7.871 7.871 0 0 1-.969-.828 7.902 7.902 0 0 1-.827-.968 4.639 4.639 0 0 1-.542-.95.604.604 0 0 0 .013-.02.872.872 0 0 1 .133-.122c.07-.055.15-.112.238-.168l.275-.172c.245-.153.467-.307.661-.46.21-.166.317-.363.317-.587a1.18 1.18 0 0 0-.132-.482 5.017 5.017 0 0 0-.29-.532 7.173 7.173 0 0 0-.319-.473 8.605 8.605 0 0 0-.603-.756 6.21 6.21 0 0 0-.366-.376 2.336 2.336 0 0 0-.432-.33c-.27-.15-.472-.138-.727-.043a2.335 2.335 0 0 0-.366.175 3.504 3.504 0 0 0-.662.494 3.566 3.566 0 0 0-.52.59c-.091.13-.17.275-.235.43-.067.157-.102.32-.102.486 0 .243.018.493.053.742.037.251.088.507.156.76.068.259.154.52.255.78.102.264.222.531.356.794a10.988 10.988 0 0 0 1.451 2.14c.19.222.396.444.608.66a12.494 12.494 0 0 0 1.355 1.162c.233.173.473.337.715.489a9.338 9.338 0 0 0 1.524.77c.256.1.518.185.776.253.255.068.512.12.762.153.251.034.501.051.742.051.163 0 .327-.033.485-.098.154-.063.299-.142.434-.235a3.63 3.63 0 0 0 .846-.83c.086-.115.165-.233.236-.354.07-.121.129-.245.175-.366.047-.127.071-.247.071-.357a.764.764 0 0 0-.114-.373z"/></g></g></svg>